<svg width="112" height="16" viewBox="0 0 112 16" fill="none" xmlns="http://www.w3.org/2000/svg" aria-hidden="true">
  <g clip-path="url(#kernel_logo_clip)">
    <path d="M1.19979 15.9674V3.0088L0 2.24024L9.03768e-08 0.135742H6.99954C9.70948 0.135743 11.6211 1.67286 11.6211 4.38719C11.6211 5.85672 11.0652 7.05591 9.84382 7.82451C11.2212 8.66064 11.8434 9.81425 11.8434 11.4425C11.8434 14.4052 9.7326 15.9659 6.95474 15.9659H1.19979V15.9674ZM4.46562 6.5357H6.64284C7.75309 6.5357 8.35369 5.69956 8.35369 4.88542C8.35369 3.98169 7.70979 3.27914 6.68758 3.27914H4.46562V6.5357ZM8.57606 11.1266C8.57606 10.0406 7.77621 9.43078 6.75399 9.43078H4.46562V12.8005H6.79879C7.84262 12.8005 8.57606 12.1451 8.57606 11.1266Z" fill="currentColor"/>
    <path d="M13.1294 10.1091V5.99289C13.1294 2.46442 15.2618 -1.46333e-07 18.5509 0C21.8399 1.46333e-07 23.9506 2.55558 23.9506 5.99289V10.1091C23.9506 13.6817 21.8182 16.1021 18.5509 16.1021C15.2835 16.1021 13.1294 13.6376 13.1294 10.1091ZM20.7064 9.974V6.12963C20.7064 4.50135 20.1506 3.14497 18.5509 3.14497C16.9511 3.14497 16.3736 4.45733 16.3736 6.12963V9.974C16.3736 11.6699 16.9295 12.9587 18.5509 12.9587C20.1722 12.9587 20.7064 11.6243 20.7064 9.974Z" fill="currentColor"/>
    <path d="M25.9273 15.9674V3.00881L24.7275 2.24025V0.135742H31.1047C34.5049 0.135742 36.5262 2.66775 36.5262 6.12863V10.0406C36.5262 13.5234 34.4818 15.9659 31.1047 15.9659H25.9273V15.9674ZM33.282 9.83784V6.26537C33.282 4.59151 32.7492 3.28071 31.1047 3.28071H29.2163V12.802H31.1047C32.7492 12.802 33.282 11.5132 33.282 9.83937" fill="currentColor"/>
    <path d="M37.7922 12.8916H39.48C40.6349 12.8916 41.1461 12.1686 40.7693 11.037L37.0371 0.135742L40.4589 0.135743L42.6809 6.67084L44.9678 0.135743H48.2568L43.7464 13.1164C42.9681 15.2429 42.4354 15.9659 40.2798 15.9659H37.7922V12.89V12.8916Z" fill="currentColor"/>
    <path d="M55.011 15.9674L54.2775 13.7514H49.4784L48.7665 15.9674H45.4111L50.9005 0.135742L54.9229 0.135743V2.28426L53.9455 2.91765L58.4559 15.9659H55.0125L55.011 15.9674ZM51.8332 6.40054L50.3894 10.9914H53.3449L51.8332 6.40054Z" fill="currentColor"/>
    <path d="M65.4973 0.135742C68.3419 0.135742 70.1188 2.17109 70.1188 4.975C70.1188 7.28224 68.8527 8.75177 67.6083 9.38517L71.1412 15.9659H67.497L64.2528 9.85984H62.8971V15.9659H59.6529V3.00881L58.4531 2.24025V0.135742H65.4973ZM66.8531 4.99857C66.8531 4.11685 66.3422 3.27914 65.187 3.27914H62.8986V6.82957H65.187C66.2754 6.82957 66.8531 5.92431 66.8531 4.99701" fill="currentColor"/>
    <path d="M82.606 7.19264L80.0287 12.7329H78.4293L75.852 7.19264V15.9674H72.5627V3.00881L71.3628 2.24025V0.135742H75.852L79.229 7.37344L82.606 0.135742L85.8933 0.135743V15.9674H82.606V7.19264Z" fill="currentColor"/>
    <path d="M87.7158 10.1092V5.99288C87.7158 2.46442 89.8484 -1.46333e-07 93.137 0C96.4263 1.46333e-07 98.5372 2.55558 98.5372 5.99288V10.1092C98.5372 13.6817 96.4047 16.1021 93.137 16.1021C89.87 16.1021 87.7158 13.6376 87.7158 10.1092ZM95.2925 9.974V6.12962C95.2925 4.50134 94.7371 3.14497 93.137 3.14497C91.5376 3.14497 90.9599 4.45734 90.9599 6.12962V9.974C90.9599 11.6699 91.516 12.9587 93.137 12.9587C94.7587 12.9587 95.2925 11.6243 95.2925 9.974Z" fill="currentColor"/>
    <path d="M106.356 0.135743C109.201 0.135743 110.978 2.17109 110.978 4.97657C110.978 7.28384 109.712 8.75337 108.467 9.38677L112 15.9674H108.356L105.112 9.86144H103.756V15.9674H100.512V3.00881L99.312 2.24025V0.135742L106.356 0.135743ZM107.712 4.99858C107.712 4.11685 107.201 3.27914 106.046 3.27914H103.757V6.82957H106.046C107.134 6.82964 107.712 5.92431 107.712 4.99701" fill="currentColor"/>
  </g>
  <defs>
    <clipPath id="kernel_logo_clip">
      <rect width="112" height="16" fill="currentColor"/>
    </clipPath>
  </defs>
</svg>
