<svg width="56" height="56" viewBox="0 0 56 56" fill="none" xmlns="http://www.w3.org/2000/svg">
<path d="M4.66666 46.6667V44.3333C4.66666 35.3127 11.9793 28 21 28V28" stroke="#22221F" stroke-width="3.5" stroke-linecap="round" stroke-linejoin="round"/>
<path d="M36.8755 28.7316C38.373 27.0872 40.9603 27.0872 42.4578 28.7316V28.7316C43.2147 29.5626 44.3025 30.0132 45.4253 29.9607V29.9607C47.6469 29.8569 49.4765 31.6864 49.3726 33.9081V33.9081C49.3202 35.0309 49.7707 36.1187 50.6018 36.8755V36.8755C52.2461 38.373 52.2461 40.9604 50.6018 42.4579V42.4579C49.7707 43.2147 49.3202 44.3025 49.3726 45.4253V45.4253C49.4765 47.647 47.6469 49.4765 45.4253 49.3727V49.3727C44.3025 49.3202 43.2147 49.7708 42.4578 50.6018V50.6018C40.9603 52.2462 38.373 52.2462 36.8755 50.6018V50.6018C36.1186 49.7708 35.0308 49.3202 33.908 49.3727V49.3727C31.6864 49.4765 29.8569 47.647 29.9607 45.4253V45.4253C30.0132 44.3025 29.5626 43.2147 28.7315 42.4579V42.4579C27.0872 40.9604 27.0872 38.373 28.7315 36.8755V36.8755C29.5626 36.1187 30.0132 35.0309 29.9607 33.9081V33.9081C29.8569 31.6864 31.6864 29.8569 33.908 29.9607V29.9607C35.0308 30.0132 36.1186 29.5626 36.8755 28.7316V28.7316Z" stroke="#22221F" stroke-width="3.5"/>
<path d="M35.8485 39.6667L38.3939 42.2121L43.4848 37.1212" stroke="#22221F" stroke-width="3.5" stroke-linecap="round" stroke-linejoin="round"/>
<path d="M21 28C26.1546 28 30.3333 23.8213 30.3333 18.6666C30.3333 13.512 26.1546 9.33331 21 9.33331C15.8453 9.33331 11.6667 13.512 11.6667 18.6666C11.6667 23.8213 15.8453 28 21 28Z" stroke="#22221F" stroke-width="3.5" stroke-linecap="round" stroke-linejoin="round"/>
</svg>
