<svg width="54" height="47" viewBox="0 0 54 47" fill="none" xmlns="http://www.w3.org/2000/svg">
<path d="M21.2018 36.5021C21.2018 39.4165 20.1818 41.8572 18.1418 43.8244C16.1017 45.7916 13.5517 46.7752 10.4916 46.7752C7.57729 46.7752 5.1001 45.6459 3.06006 43.3873C1.02002 41.1287 0 38.2872 0 34.8628C0 32.3856 0.546439 29.6534 1.63932 26.6662C2.80505 23.679 4.29866 20.6554 6.12012 17.5953C8.01444 14.5353 10.1273 11.5117 12.4588 8.52445C14.8631 5.46439 17.2675 2.62291 19.6718 0L22.6226 2.40433C19.3439 6.26584 16.6118 10.1638 14.426 14.0981C12.2402 18.0325 10.9288 21.894 10.4916 25.6826C13.406 25.9012 15.9196 26.9941 18.0325 28.9613C20.1454 30.9285 21.2018 33.4421 21.2018 36.5021ZM52.5675 36.5021C52.5675 39.4165 51.5474 41.8572 49.5074 43.8244C47.4674 45.7916 44.9173 46.7752 41.8572 46.7752C38.9429 46.7752 36.4657 45.6459 34.4257 43.3873C32.3856 41.1287 31.3656 38.2872 31.3656 34.8628C31.3656 32.3856 31.9121 29.6534 33.0049 26.6662C34.1707 23.679 35.6643 20.6554 37.4857 17.5953C39.3801 14.5353 41.493 11.5117 43.8244 8.52445C46.2288 5.46439 48.6331 2.62291 51.0374 0L53.8789 2.40433C50.6003 6.26584 47.8681 10.1638 45.6823 14.0981C43.5694 18.0325 42.2944 21.894 41.8572 25.6826C44.7716 25.9012 47.2852 26.9941 49.3981 28.9613C51.511 30.9285 52.5675 33.4421 52.5675 36.5021Z" fill="#22221F"/>
</svg>
