<svg width="28" height="28" viewBox="0 0 28 28" fill="none" xmlns="http://www.w3.org/2000/svg">
<path d="M1.16667 23.3333V22.1667C1.16667 17.6563 4.82301 14 9.33334 14V14C13.8437 14 17.5 17.6563 17.5 22.1667V23.3333" stroke="#22221F" stroke-width="1.75" stroke-linecap="round"/>
<path d="M15.1667 16.3333V16.3333C15.1667 13.1117 17.7783 10.5 21 10.5V10.5C24.2217 10.5 26.8333 13.1117 26.8333 16.3333V16.9167" stroke="#22221F" stroke-width="1.75" stroke-linecap="round"/>
<path d="M9.33333 14.0001C11.9107 14.0001 14 11.9107 14 9.33342C14 6.75609 11.9107 4.66675 9.33333 4.66675C6.75601 4.66675 4.66667 6.75609 4.66667 9.33342C4.66667 11.9107 6.75601 14.0001 9.33333 14.0001Z" stroke="#22221F" stroke-width="1.75" stroke-linecap="round" stroke-linejoin="round"/>
<path d="M21 10.5C22.933 10.5 24.5 8.933 24.5 7C24.5 5.067 22.933 3.5 21 3.5C19.067 3.5 17.5 5.067 17.5 7C17.5 8.933 19.067 10.5 21 10.5Z" stroke="#22221F" stroke-width="1.75" stroke-linecap="round" stroke-linejoin="round"/>
</svg>
