<svg width="56" height="56" viewBox="0 0 56 56" fill="none" xmlns="http://www.w3.org/2000/svg">
<path d="M21 42C21 42 23.1 33.2706 28 28" stroke="#22221F" stroke-width="3.5" stroke-linecap="round" stroke-linejoin="round"/>
<path d="M37.7665 16.8965L38.6403 25.9714C39.2072 31.8585 34.7932 37.1002 28.906 37.6671C23.1295 38.2233 17.8967 34.001 17.3404 28.2245C16.7842 22.448 21.0161 17.3143 26.7926 16.7581L36.4684 15.8264C37.1224 15.7634 37.7035 16.2425 37.7665 16.8965Z" stroke="#22221F" stroke-width="3.5" stroke-linecap="round" stroke-linejoin="round"/>
<path d="M28 51.3334C40.8867 51.3334 51.3333 40.8867 51.3333 28C51.3333 15.1134 40.8867 4.66669 28 4.66669C15.1134 4.66669 4.66667 15.1134 4.66667 28C4.66667 40.8867 15.1134 51.3334 28 51.3334Z" stroke="#22221F" stroke-width="3.5" stroke-linecap="round" stroke-linejoin="round"/>
</svg>
