<svg width="59" height="37" viewBox="0 0 59 37" fill="none" xmlns="http://www.w3.org/2000/svg">
<path d="M58.6881 29.3279C55.4506 26.1249 51.3637 24.0841 46.8678 23.4258C46.2943 23.3417 45.7603 23.742 45.6775 24.3136C45.5937 24.8864 45.9916 25.421 46.5647 25.5053C50.2418 26.0434 53.6352 27.6199 56.4115 30.0745C52.9962 33.0893 48.6109 34.7887 44.003 34.8721C39.6226 34.9542 35.3925 33.5644 31.9595 30.9524C42.418 29.6076 50.5836 20.66 50.6419 9.90269C50.6435 9.62405 50.5314 9.35109 50.3353 9.15479C50.1242 8.94238 49.8406 8.82638 49.5681 8.8462C45.1141 8.87432 40.8605 10.2672 37.2661 12.8751C36.7976 13.2157 36.6933 13.8741 37.0335 14.3427C37.1985 14.5694 37.4417 14.7186 37.7185 14.7628C37.9954 14.8069 38.2739 14.7406 38.5011 14.5756C41.4382 12.444 44.8864 11.2075 48.5038 10.9839C48.207 15.7436 46.1488 20.1923 42.6735 23.5604C39.6651 26.4763 35.8708 28.3055 31.7983 28.8506C38.2481 20.5168 37.7339 8.45571 30.2101 0.849693C30.0184 0.655724 29.7461 0.544529 29.463 0.544529C29.18 0.544529 28.9078 0.65572 28.7162 0.849472C25.5132 4.08736 23.4723 8.1743 22.8146 12.6689C22.7308 13.2418 23.1286 13.7764 23.7045 13.8609C24.2776 13.9417 24.8104 13.5431 24.8936 12.9731C25.4318 9.2968 27.0082 5.9032 29.4623 3.12648C32.5937 6.67922 34.2637 11.2563 34.1751 16.0751C34.0983 20.2456 32.705 24.2083 30.2146 27.4666C28.8814 17.0948 20.0429 8.96045 9.42084 8.85101C9.13418 8.84911 8.86705 8.95601 8.66602 9.15493C8.46826 9.35087 8.35466 9.62303 8.35466 9.90159V11.8516C8.35466 11.886 8.35633 11.9209 8.36005 11.9581C8.72373 15.5318 10.006 18.978 12.0681 21.9243C12.3992 22.398 13.0549 22.514 13.5315 22.1827C13.7613 22.0218 13.9149 21.781 13.9635 21.5047C14.0124 21.2282 13.9507 20.9494 13.7897 20.7195C11.9432 18.0814 10.7907 14.9968 10.4558 11.7976V10.9929C15.1609 11.3061 19.5602 13.3679 22.8897 16.8323C25.7663 19.8253 27.5721 23.5903 28.1127 27.6247C19.8386 21.2517 7.84744 21.8794 0.314654 29.258C0.113106 29.4561 0.00140138 29.7208 1.69223e-05 30.0024C-0.00158614 30.2814 0.110774 30.5545 0.307877 30.751L1.68257 32.1253C1.70815 32.1516 1.73489 32.1758 1.76564 32.2012C5.523 35.2636 10.2706 36.9502 15.1346 36.95C15.1351 36.95 15.136 36.95 15.1363 36.95H15.1753C18.9767 36.9471 22.7049 35.9258 25.9569 33.9965C26.1982 33.8534 26.3694 33.6246 26.4388 33.3528C26.5084 33.0807 26.4676 32.798 26.3247 32.557C26.1819 32.3157 25.9534 32.1444 25.6814 32.075C25.409 32.005 25.1258 32.0461 24.8845 32.1892C21.9587 33.9251 18.603 34.8448 15.1788 34.8488H15.125C10.7646 34.8465 6.50742 33.3397 3.13451 30.6055L2.56513 30.0365C6.117 26.925 10.676 25.2607 15.472 25.3364C20.439 25.4165 25.0995 27.3637 28.595 30.8194C28.5962 30.8206 28.5974 30.8217 28.5986 30.8228C28.5987 30.823 28.5987 30.8231 28.5988 30.8231C28.5988 30.8232 28.599 30.8233 28.5991 30.8234C28.601 30.8253 28.6031 30.8274 28.6051 30.8293C32.6163 34.7944 37.9545 36.9777 43.6389 36.9777C43.6396 36.9777 43.641 36.9777 43.6417 36.9777C49.3316 36.9775 54.6755 34.7912 58.6889 30.8215C58.8863 30.6254 59 30.3532 59 30.0747C59 29.7961 58.8863 29.5239 58.6881 29.3279Z" fill="#22221F"/>
</svg>
