<svg width="106" height="19" viewBox="0 0 106 19" fill="none" xmlns="http://www.w3.org/2000/svg">
<path d="M9.25397 0L12.0933 5.34595L18.055 6.39433L13.8481 10.7467L14.6933 16.7406L9.25397 14.0845L3.81462 16.7406L4.65982 10.7467L0.452922 6.39433L6.41463 5.34595L9.25397 0Z" fill="#FFE146"/>
<path d="M31.127 0L33.9663 5.34595L39.928 6.39433L35.7211 10.7467L36.5663 16.7406L31.127 14.0845L25.6876 16.7406L26.5328 10.7467L22.3259 6.39433L28.2876 5.34595L31.127 0Z" fill="#FFE146"/>
<path d="M53 0L55.8393 5.34595L61.801 6.39433L57.5941 10.7467L58.4393 16.7406L53 14.0845L47.5607 16.7406L48.4059 10.7467L44.199 6.39433L50.1607 5.34595L53 0Z" fill="#FFE146"/>
<path d="M74.873 0L77.7123 5.34595L83.6741 6.39433L79.4672 10.7467L80.3124 16.7406L74.873 14.0845L69.4337 16.7406L70.2789 10.7467L66.072 6.39433L72.0337 5.34595L74.873 0Z" fill="#FFE146"/>
<path d="M96.746 0L99.5854 5.34595L105.547 6.39433L101.34 10.7467L102.185 16.7406L96.746 14.0845L91.3067 16.7406L92.1519 10.7467L87.945 6.39433L93.9067 5.34595L96.746 0Z" fill="#FFE146"/>
</svg>
