<svg width="174" height="33" viewBox="0 0 174 33" fill="none" xmlns="http://www.w3.org/2000/svg">
<path d="M70.4266 16.9553V20.8486C70.4266 21.5914 70.4353 22.2425 70.4528 22.8018C70.4703 23.3524 70.4965 23.8287 70.5314 24.2307C70.5664 24.6327 70.6057 24.9692 70.6494 25.2401C70.7019 25.511 70.7543 25.7382 70.8067 25.9218V25.9742H67.6606V25.9218C67.713 25.7382 67.7611 25.511 67.8048 25.2401C67.8572 24.9692 67.8966 24.6327 67.9228 24.2307C67.9577 23.8287 67.9839 23.3524 68.0014 22.8018C68.0276 22.2425 68.0407 21.5914 68.0407 20.8486V17.2174L62.1811 9.24723C61.9801 8.97631 61.7791 8.72725 61.5781 8.50002C61.3858 8.2728 61.2023 8.07617 61.0275 7.91012C60.8527 7.73534 60.6954 7.59114 60.5556 7.47753C60.4157 7.36392 60.3065 7.2809 60.2278 7.22846V7.17603H64.1998C64.1998 7.37703 64.2829 7.70912 64.4489 8.1723C64.6237 8.62674 64.9339 9.16421 65.3796 9.7847L69.6794 15.6706L73.8873 9.52252C74.0359 9.30404 74.1845 9.08119 74.333 8.85396C74.4816 8.62674 74.617 8.40826 74.7394 8.19852C74.8617 7.98878 74.9579 7.79651 75.0278 7.62173C75.1064 7.44694 75.1458 7.29838 75.1458 7.17603H77.702V7.22846C77.5097 7.39451 77.2519 7.64358 76.9286 7.97567C76.6052 8.29902 76.2557 8.73161 75.8799 9.27345L70.4266 16.9553Z" fill="#22221F"/>
<path d="M76.6009 19.2362C76.6009 18.2487 76.7844 17.3354 77.1514 16.4965C77.5185 15.6487 78.021 14.9146 78.659 14.2942C79.3057 13.6737 80.066 13.1886 80.9399 12.8391C81.8138 12.4895 82.7533 12.3147 83.7583 12.3147C84.7459 12.3147 85.6722 12.4808 86.5374 12.8129C87.4113 13.1362 88.1717 13.5994 88.8184 14.2024C89.4651 14.8054 89.9719 15.5395 90.339 16.4047C90.7148 17.2699 90.9027 18.2399 90.9027 19.3149C90.9027 20.215 90.7454 21.0802 90.4308 21.9104C90.1161 22.7407 89.653 23.4748 89.0412 24.1127C88.4295 24.7507 87.6779 25.2619 86.7865 25.6465C85.9038 26.0223 84.8857 26.2101 83.7321 26.2101C82.7533 26.2101 81.8313 26.0485 80.9661 25.7251C80.1009 25.4018 79.345 24.9386 78.6983 24.3356C78.0516 23.7326 77.5403 23.0028 77.1645 22.1464C76.7888 21.2812 76.6009 20.3111 76.6009 19.2362ZM84.0336 25.2532C84.6541 25.2532 85.2221 25.1309 85.7378 24.8862C86.2621 24.6415 86.7122 24.2875 87.088 23.8243C87.4638 23.3611 87.7565 22.7975 87.9663 22.1333C88.176 21.4691 88.2809 20.7175 88.2809 19.8786C88.2809 18.9347 88.1804 18.0608 87.9794 17.2568C87.7784 16.444 87.4769 15.7449 87.0749 15.1593C86.6816 14.5651 86.1835 14.1019 85.5805 13.7698C84.9775 13.4377 84.2739 13.2717 83.4699 13.2717C82.8494 13.2717 82.2814 13.394 81.7658 13.6387C81.2502 13.8747 80.8001 14.2199 80.4156 14.6743C80.0398 15.1288 79.747 15.6881 79.5373 16.3523C79.3275 17.0077 79.2226 17.7549 79.2226 18.5939C79.2226 19.5377 79.3231 20.416 79.5241 21.2288C79.7339 22.0415 80.0398 22.7494 80.4418 23.3524C80.8438 23.9467 81.3419 24.4142 81.9362 24.7551C82.5392 25.0872 83.2383 25.2532 84.0336 25.2532Z" fill="#22221F"/>
<path d="M98.9253 31.965C99.6332 31.965 100.232 31.8863 100.721 31.729C101.211 31.5804 101.613 31.3707 101.927 31.0998C102.251 30.8289 102.495 30.5011 102.661 30.1166C102.836 29.7408 102.963 29.3257 103.042 28.8713C103.129 28.4168 103.177 27.9318 103.186 27.4162C103.203 26.9006 103.212 26.3675 103.212 25.8169V25.3843C102.784 25.6115 102.268 25.8081 101.665 25.9742C101.062 26.1315 100.38 26.2101 99.6201 26.2101C98.5801 26.2101 97.6363 26.0485 96.7886 25.7251C95.9409 25.4018 95.2155 24.9386 94.6125 24.3356C94.0182 23.7326 93.5594 23.0028 93.2361 22.1464C92.9127 21.2812 92.751 20.3111 92.751 19.2362C92.751 18.2487 92.9083 17.3311 93.2229 16.4833C93.5463 15.6356 93.9964 14.9015 94.5732 14.281C95.1587 13.6606 95.8535 13.1755 96.6575 12.826C97.4702 12.4677 98.366 12.2885 99.3448 12.2885C99.7643 12.2885 100.149 12.3235 100.498 12.3934C100.848 12.4633 101.171 12.5594 101.468 12.6818C101.774 12.7954 102.058 12.9308 102.321 13.0881C102.591 13.2367 102.854 13.3984 103.107 13.5732L102.976 12.6031V12.5507H105.873V12.6031C105.821 12.7866 105.768 13.0139 105.716 13.2848C105.672 13.5557 105.633 13.8922 105.598 14.2942C105.572 14.6962 105.545 15.1768 105.519 15.7361C105.502 16.2867 105.493 16.9334 105.493 17.6763V26.5903C105.493 27.3943 105.384 28.1765 105.165 28.9368C104.955 29.7059 104.593 30.3875 104.077 30.9818C103.57 31.5761 102.897 32.0524 102.058 32.4107C101.219 32.769 100.175 32.9481 98.9253 32.9481C98.4884 32.9481 98.047 32.9044 97.6013 32.817C97.1556 32.7384 96.7318 32.6379 96.3298 32.5155C95.9278 32.4019 95.5651 32.2752 95.2417 32.1354C94.9184 31.9955 94.6606 31.8732 94.4683 31.7683L94.0619 29.2514L94.2717 29.199C94.4814 29.6534 94.7654 30.0511 95.1237 30.3919C95.4908 30.7415 95.8884 31.0299 96.3166 31.2571C96.7449 31.493 97.1862 31.6678 97.6406 31.7814C98.1038 31.9038 98.5321 31.965 98.9253 31.965ZM100.21 25.2532C100.839 25.2532 101.407 25.1483 101.914 24.9386C102.43 24.7288 102.862 24.4841 103.212 24.2045V17.6763C103.212 17.1869 103.208 16.7455 103.199 16.3523C103.19 15.9502 103.186 15.5876 103.186 15.2642C102.976 14.9409 102.731 14.6568 102.452 14.4121C102.181 14.1587 101.888 13.949 101.573 13.7829C101.267 13.6081 100.953 13.477 100.629 13.3896C100.306 13.2935 99.9871 13.2454 99.6725 13.2454C99.0083 13.2454 98.4097 13.3678 97.8766 13.6125C97.3435 13.8572 96.8891 14.2111 96.5133 14.6743C96.1462 15.1288 95.8622 15.6881 95.6612 16.3523C95.4689 17.0077 95.3728 17.7549 95.3728 18.5939C95.3728 19.5377 95.4777 20.416 95.6874 21.2288C95.8972 22.0415 96.203 22.7494 96.605 23.3524C97.0158 23.9467 97.5227 24.4142 98.1257 24.7551C98.7287 25.0872 99.4235 25.2532 100.21 25.2532Z" fill="#22221F"/>
<path d="M108.482 22.1071C108.482 21.4167 108.622 20.818 108.901 20.3111C109.19 19.8043 109.57 19.3717 110.042 19.0134C110.514 18.6551 111.051 18.3667 111.654 18.1482C112.257 17.921 112.882 17.7462 113.529 17.6238C114.175 17.4927 114.813 17.4053 115.443 17.3616C116.072 17.3092 116.649 17.2786 117.173 17.2699V16.6013C117.173 16.0245 117.099 15.5264 116.95 15.1069C116.801 14.6874 116.592 14.3422 116.321 14.0713C116.05 13.7917 115.722 13.5863 115.338 13.4552C114.962 13.3154 114.547 13.2454 114.092 13.2454C113.778 13.2454 113.467 13.2717 113.162 13.3241C112.856 13.3765 112.537 13.4639 112.205 13.5863C111.881 13.7086 111.536 13.8747 111.169 14.0844C110.811 14.2942 110.422 14.5607 110.002 14.8841L109.871 14.8054L110.763 12.9571C111.051 12.826 111.335 12.7211 111.615 12.6424C111.894 12.555 112.178 12.4851 112.467 12.4327C112.755 12.3803 113.048 12.3453 113.345 12.3278C113.651 12.3016 113.97 12.2885 114.302 12.2885C115.22 12.2885 116.002 12.4021 116.649 12.6293C117.304 12.8478 117.837 13.1537 118.248 13.547C118.667 13.9315 118.973 14.3859 119.165 14.9103C119.358 15.4259 119.454 15.9808 119.454 16.5751V20.8486C119.454 21.5914 119.463 22.2425 119.48 22.8018C119.506 23.3524 119.533 23.8287 119.559 24.2307C119.594 24.6327 119.633 24.9692 119.677 25.2401C119.729 25.511 119.782 25.7382 119.834 25.9218V25.9742H116.937V25.9218C116.981 25.7819 117.011 25.6246 117.029 25.4498C117.055 25.275 117.077 25.0653 117.094 24.8206C116.911 24.9779 116.692 25.1396 116.439 25.3056C116.194 25.4717 115.91 25.6246 115.587 25.7644C115.272 25.8955 114.918 26.0004 114.525 26.0791C114.14 26.1665 113.717 26.2101 113.253 26.2101C111.733 26.2101 110.557 25.8562 109.727 25.1483C108.897 24.4317 108.482 23.418 108.482 22.1071ZM117.173 18.2924C116.378 18.3011 115.613 18.3492 114.879 18.4366C114.145 18.5152 113.494 18.6856 112.926 18.9478C112.366 19.21 111.916 19.5858 111.575 20.0752C111.243 20.5558 111.077 21.1982 111.077 22.0022C111.077 23.0334 111.335 23.82 111.851 24.3618C112.366 24.9036 113.079 25.1745 113.987 25.1745C114.407 25.1745 114.787 25.1177 115.128 25.0041C115.477 24.8818 115.783 24.7332 116.046 24.5584C116.316 24.3749 116.544 24.1783 116.727 23.9685C116.911 23.75 117.051 23.5403 117.147 23.3393C117.164 23.0072 117.173 22.6402 117.173 22.2382C117.173 21.8274 117.173 21.3642 117.173 20.8486V18.2924Z" fill="#22221F"/>
<path d="M138.986 16.9553V20.8486C138.986 21.5914 138.995 22.2425 139.012 22.8018C139.03 23.3524 139.056 23.8287 139.091 24.2307C139.126 24.6327 139.165 24.9692 139.209 25.2401C139.261 25.511 139.314 25.7382 139.366 25.9218V25.9742H136.22V25.9218C136.273 25.7382 136.321 25.511 136.364 25.2401C136.417 24.9692 136.456 24.6327 136.482 24.2307C136.517 23.8287 136.543 23.3524 136.561 22.8018C136.587 22.2425 136.6 21.5914 136.6 20.8486V17.2174L130.741 9.24723C130.54 8.97631 130.339 8.72725 130.138 8.50002C129.945 8.2728 129.762 8.07617 129.587 7.91012C129.412 7.73534 129.255 7.59114 129.115 7.47753C128.975 7.36392 128.866 7.2809 128.787 7.22846V7.17603H132.759C132.759 7.37703 132.842 7.70912 133.008 8.1723C133.183 8.62674 133.493 9.16421 133.939 9.7847L138.239 15.6706L142.447 9.52252C142.595 9.30404 142.744 9.08119 142.893 8.85396C143.041 8.62674 143.177 8.40826 143.299 8.19852C143.421 7.98878 143.517 7.79651 143.587 7.62173C143.666 7.44694 143.705 7.29838 143.705 7.17603H146.262V7.22846C146.069 7.39451 145.811 7.64358 145.488 7.97567C145.165 8.29902 144.815 8.73161 144.439 9.27345L138.986 16.9553Z" fill="#22221F"/>
<path d="M145.16 19.2362C145.16 18.2487 145.344 17.3354 145.711 16.4965C146.078 15.6487 146.581 14.9146 147.219 14.2942C147.865 13.6737 148.626 13.1886 149.499 12.8391C150.373 12.4895 151.313 12.3147 152.318 12.3147C153.305 12.3147 154.232 12.4808 155.097 12.8129C155.971 13.1362 156.731 13.5994 157.378 14.2024C158.025 14.8054 158.531 15.5395 158.899 16.4047C159.274 17.2699 159.462 18.2399 159.462 19.3149C159.462 20.215 159.305 21.0802 158.99 21.9104C158.676 22.7407 158.213 23.4748 157.601 24.1127C156.989 24.7507 156.237 25.2619 155.346 25.6465C154.463 26.0223 153.445 26.2101 152.292 26.2101C151.313 26.2101 150.391 26.0485 149.526 25.7251C148.66 25.4018 147.905 24.9386 147.258 24.3356C146.611 23.7326 146.1 23.0028 145.724 22.1464C145.348 21.2812 145.16 20.3111 145.16 19.2362ZM152.593 25.2532C153.214 25.2532 153.782 25.1309 154.297 24.8862C154.822 24.6415 155.272 24.2875 155.648 23.8243C156.023 23.3611 156.316 22.7975 156.526 22.1333C156.736 21.4691 156.84 20.7175 156.84 19.8786C156.84 18.9347 156.74 18.0608 156.539 17.2568C156.338 16.444 156.036 15.7449 155.634 15.1593C155.241 14.5651 154.743 14.1019 154.14 13.7698C153.537 13.4377 152.833 13.2717 152.029 13.2717C151.409 13.2717 150.841 13.394 150.325 13.6387C149.81 13.8747 149.36 14.2199 148.975 14.6743C148.599 15.1288 148.307 15.6881 148.097 16.3523C147.887 17.0077 147.782 17.7549 147.782 18.5939C147.782 19.5377 147.883 20.416 148.084 21.2288C148.293 22.0415 148.599 22.7494 149.001 23.3524C149.403 23.9467 149.901 24.4142 150.496 24.7551C151.099 25.0872 151.798 25.2532 152.593 25.2532Z" fill="#22221F"/>
<path d="M164.614 21.3861C164.614 22.5397 164.841 23.3874 165.296 23.9292C165.759 24.471 166.379 24.742 167.157 24.742C167.437 24.742 167.751 24.6851 168.101 24.5715C168.451 24.4492 168.809 24.2919 169.176 24.0996C169.552 23.8986 169.923 23.667 170.29 23.4048C170.666 23.1427 171.011 22.863 171.326 22.5659C171.343 22.3124 171.352 22.0459 171.352 21.7662C171.352 21.4778 171.352 21.172 171.352 20.8486V17.6763C171.352 16.9334 171.339 16.2867 171.313 15.7361C171.295 15.1768 171.269 14.6962 171.234 14.2942C171.208 13.8922 171.168 13.5557 171.116 13.2848C171.072 13.0139 171.024 12.7866 170.972 12.6031V12.5507H174V12.6031C173.948 12.7866 173.899 13.0139 173.856 13.2848C173.812 13.5557 173.773 13.8922 173.738 14.2942C173.703 14.6962 173.677 15.1768 173.659 15.7361C173.642 16.2867 173.633 16.9334 173.633 17.6763V20.8486C173.633 21.5914 173.642 22.2425 173.659 22.8018C173.677 23.3524 173.703 23.8287 173.738 24.2307C173.773 24.6327 173.812 24.9692 173.856 25.2401C173.899 25.511 173.948 25.7382 174 25.9218V25.9742H170.972V25.9218C171.024 25.7033 171.077 25.4236 171.129 25.0828C171.19 24.742 171.234 24.2962 171.26 23.7457C170.902 24.0515 170.513 24.3531 170.094 24.6502C169.683 24.9473 169.25 25.2139 168.796 25.4498C168.35 25.6858 167.896 25.8737 167.432 26.0135C166.978 26.1621 166.528 26.2364 166.082 26.2364C165.401 26.2364 164.819 26.1184 164.339 25.8824C163.867 25.6465 163.478 25.3362 163.172 24.9517C162.875 24.5672 162.656 24.1302 162.517 23.6408C162.386 23.1514 162.32 22.6489 162.32 22.1333V17.6763C162.32 16.9334 162.311 16.2867 162.294 15.7361C162.276 15.1768 162.25 14.6962 162.215 14.2942C162.18 13.8922 162.141 13.5557 162.097 13.2848C162.053 13.0139 162.005 12.7866 161.953 12.6031V12.5507H164.981V12.6031C164.929 12.7866 164.881 13.0139 164.837 13.2848C164.793 13.5557 164.754 13.8922 164.719 14.2942C164.684 14.6962 164.658 15.1768 164.64 15.7361C164.623 16.2867 164.614 16.9334 164.614 17.6763V21.3861Z" fill="#22221F"/>
<path d="M49.4904 24.2724C46.7603 21.5714 43.314 19.8504 39.5226 19.2953C39.039 19.2244 38.5887 19.5619 38.5188 20.044C38.4482 20.527 38.7837 20.9778 39.267 21.0489C42.3678 21.5026 45.2294 22.8321 47.5706 24.902C44.6905 27.4443 40.9925 28.8774 37.1068 28.9477C33.4129 29.017 29.8458 27.8449 26.9508 25.6423C35.7702 24.5082 42.6561 16.963 42.7053 7.89153C42.7066 7.65656 42.612 7.42638 42.4467 7.26084C42.2687 7.08172 42.0295 6.9839 41.7997 7.00061C38.0438 7.02433 34.4568 8.19888 31.4257 10.3981C31.0306 10.6853 30.9427 11.2406 31.2295 11.6357C31.3687 11.8269 31.5738 11.9527 31.8072 11.99C32.0407 12.0271 32.2755 11.9713 32.4671 11.8321C34.9439 10.0346 37.8517 8.99185 40.9022 8.80327C40.6519 12.817 38.9163 16.5685 35.9856 19.4088C33.4487 21.8677 30.249 23.4102 26.8148 23.8699C32.2538 16.8422 31.8202 6.67132 25.4755 0.257333C25.3139 0.0937616 25.0843 -5.25638e-06 24.8455 -5.25638e-06C24.6069 -5.25638e-06 24.3773 0.09376 24.2158 0.257147C21.5147 2.98759 19.7937 6.43401 19.239 10.2242C19.1684 10.7073 19.5039 11.1582 19.9895 11.2294C20.4728 11.2975 20.9221 10.9614 20.9922 10.4808C21.4461 7.3806 22.7754 4.51884 24.8449 2.17729C27.4855 5.17325 28.8938 9.03302 28.8191 13.0966C28.7543 16.6135 27.5794 19.9552 25.4794 22.7028C24.3551 13.9565 16.9018 7.09696 7.94439 7.00467C7.70266 7.00307 7.4774 7.09321 7.30787 7.26096C7.1411 7.42619 7.04531 7.6557 7.04531 7.89061V9.53504C7.04531 9.56404 7.04672 9.59348 7.04985 9.62482C7.35653 12.6384 8.43787 15.5445 10.1767 18.0291C10.456 18.4285 11.0089 18.5263 11.4108 18.247C11.6046 18.1113 11.7341 17.9083 11.7752 17.6753C11.8163 17.4421 11.7643 17.207 11.6285 17.0131C10.0714 14.7884 9.09953 12.1873 8.81718 9.48945V8.81089C12.7849 9.07499 16.4947 10.8137 19.3024 13.7351C21.7282 16.259 23.251 19.434 23.7068 22.8361C16.7295 17.4619 6.61757 17.9913 0.265341 24.2135C0.0953798 24.3805 0.00118176 24.6037 1.42702e-05 24.8412C-0.00133756 25.0765 0.0934132 25.3067 0.259626 25.4725L1.41888 26.6314C1.44045 26.6536 1.463 26.674 1.48893 26.6954C4.65743 29.2779 8.66098 30.7001 12.7627 30.7C12.7631 30.7 12.7638 30.7 12.7641 30.7H12.797C16.0026 30.6975 19.1466 29.8363 21.8889 28.2093C22.0924 28.0886 22.2368 27.8957 22.2953 27.6665C22.3539 27.437 22.3196 27.1986 22.1991 26.9954C22.0787 26.7919 21.886 26.6475 21.6566 26.589C21.4268 26.5299 21.1881 26.5646 20.9845 26.6853C18.5173 28.1491 15.6875 28.9247 12.8 28.928H12.7546C9.07759 28.9261 5.48757 27.6555 2.64326 25.3498L2.16312 24.87C5.15834 22.2461 9.00281 20.8426 13.0472 20.9065C17.2358 20.974 21.1659 22.6161 24.1136 25.5302C24.1146 25.5311 24.1156 25.5321 24.1166 25.533C24.1167 25.5332 24.1167 25.5332 24.1167 25.5333C24.1168 25.5334 24.1169 25.5334 24.117 25.5335C24.1186 25.5351 24.1204 25.5369 24.1221 25.5385C27.5046 28.8821 32.0062 30.7233 36.7997 30.7233C36.8004 30.7233 36.8015 30.7233 36.8021 30.7233C41.6003 30.7231 46.1066 28.8795 49.4911 25.5319C49.6576 25.3665 49.7534 25.137 49.7534 24.9022C49.7534 24.6672 49.6576 24.4377 49.4904 24.2724Z" fill="#22221F"/>
</svg>
