<svg width="174" height="108" viewBox="0 0 174 108" fill="none" xmlns="http://www.w3.org/2000/svg">
<path opacity="0.5" d="M173.08 85.4396C163.532 75.9935 151.48 69.9747 138.22 68.0333C136.529 67.7854 134.954 68.9658 134.71 70.6516C134.463 72.3409 135.636 73.9176 137.326 74.1662C148.171 75.753 158.178 80.4024 166.366 87.6414C156.294 96.5324 143.361 101.544 129.772 101.79C116.853 102.032 104.378 97.9335 94.2534 90.2304C125.097 86.2643 149.179 59.8766 149.351 28.1516C149.356 27.3298 149.025 26.5248 148.447 25.9459C147.824 25.3195 146.988 24.9774 146.184 25.0358C133.048 25.1188 120.504 29.2265 109.904 36.9175C108.522 37.9222 108.214 39.864 109.217 41.2459C109.704 41.9145 110.421 42.3546 111.238 42.4848C112.054 42.6148 112.876 42.4195 113.546 41.9327C122.208 35.6464 132.377 31.9997 143.045 31.3402C142.17 45.3773 136.1 58.4972 125.851 68.4303C116.978 77.0297 105.788 82.4242 93.7781 84.032C112.799 59.4541 111.283 23.8842 89.0941 1.45293C88.5289 0.880875 87.7258 0.552948 86.8908 0.552948C86.0563 0.552948 85.2535 0.880875 84.6885 1.45228C75.2422 11.0013 69.2234 23.0543 67.2836 36.3096C67.0365 37.9991 68.2098 39.5758 69.9083 39.8251C71.5985 40.0632 73.1698 38.8877 73.415 37.2068C75.0022 26.3647 79.6512 16.3565 86.8888 8.1675C96.1237 18.6451 101.049 32.1437 100.788 46.3548C100.561 58.6543 96.452 70.3411 89.1076 79.9503C85.1757 49.3623 59.1097 25.3728 27.7835 25.05C26.9381 25.0444 26.1503 25.3597 25.5574 25.9463C24.9742 26.5242 24.6392 27.3268 24.6392 28.1484V33.8994C24.6392 34.0008 24.6441 34.1037 24.6551 34.2133C25.7276 44.7526 29.5093 54.916 35.5906 63.6052C36.5671 65.0021 38.5009 65.3442 39.9063 64.3673C40.5843 63.8928 41.0371 63.1825 41.1806 62.3677C41.3246 61.5524 41.1428 60.73 40.6679 60.052C35.2223 52.2717 31.8233 43.1748 30.8358 33.7399V31.3668C44.7118 32.2905 57.686 38.3711 67.5052 48.588C75.9887 57.4148 81.3145 68.5186 82.9086 80.4164C58.5071 61.6216 23.1433 63.4729 0.927964 85.2335C0.333567 85.8176 0.00413289 86.5983 4.99063e-05 87.4286C-0.00467776 88.2517 0.326689 89.0569 0.907977 89.6364L4.96217 93.6896C5.03759 93.7671 5.11646 93.8385 5.20715 93.9133C16.2882 102.945 30.2896 107.919 44.6342 107.918C44.6357 107.918 44.6383 107.918 44.6391 107.918H44.7543C55.9651 107.91 66.9602 104.898 76.5509 99.2078C77.2624 98.7858 77.7674 98.1112 77.972 97.3094C78.1772 96.507 78.0571 95.6732 77.6357 94.9626C77.2145 94.2509 76.5406 93.7459 75.7384 93.5411C74.9349 93.3346 74.0998 93.456 73.3881 93.878C64.7597 98.9974 54.8629 101.71 44.7646 101.721H44.606C31.7466 101.715 19.1914 97.271 9.24415 89.2073L7.56497 87.5294C18.04 78.353 31.485 73.4446 45.6294 73.6681C60.2778 73.9043 74.0222 79.6469 84.3311 89.8382C84.3346 89.8417 84.338 89.8449 84.3417 89.8483C84.3419 89.8488 84.3419 89.849 84.3421 89.8492C84.3423 89.8494 84.3428 89.8496 84.343 89.8498C84.3488 89.8556 84.3548 89.8616 84.3608 89.8675C96.1903 101.561 111.934 108 128.698 108C128.7 108 128.704 108 128.706 108C145.487 107.999 161.246 101.552 173.082 89.8442C173.665 89.266 174 88.4633 174 87.642C174 86.8203 173.665 86.0176 173.08 85.4396Z" fill="#22221F"/>
</svg>
