<svg width="24" height="24" viewBox="0 0 24 24" fill="none" xmlns="http://www.w3.org/2000/svg">
<path d="M14 12L10.5 14V10L14 12Z" fill="#F9F5E8" stroke="#F9F5E8" stroke-width="1.5" stroke-linecap="round" stroke-linejoin="round"/>
<path d="M2 12.708V11.2929C2 8.39754 2 6.94988 2.90549 6.01841C3.81099 5.08694 5.23656 5.04662 8.08769 4.96598C9.43873 4.92777 10.8188 4.90039 12 4.90039C13.1812 4.90039 14.5613 4.92777 15.9123 4.96598C18.7634 5.04662 20.189 5.08694 21.0945 6.01841C22 6.94988 22 8.39754 22 11.2929V12.708C22 15.6033 22 17.0509 21.0945 17.9824C20.189 18.9139 18.7635 18.9542 15.9124 19.0349C14.5613 19.0731 13.1812 19.1005 12 19.1005C10.8188 19.1005 9.43867 19.0731 8.0876 19.0349C5.23651 18.9542 3.81097 18.9139 2.90548 17.9824C2 17.0509 2 15.6033 2 12.708Z" stroke="#F9F5E8" stroke-width="1.5"/>
</svg>
