<svg width="22" height="20" viewBox="0 0 22 20" fill="none" xmlns="http://www.w3.org/2000/svg">
<path d="M20.8943 14.1787C19.7968 13.093 18.4114 12.4012 16.8874 12.178C16.693 12.1495 16.512 12.2852 16.4839 12.479C16.4555 12.6731 16.5904 12.8544 16.7846 12.883C18.0311 13.0653 19.1814 13.5998 20.1225 14.4318C18.9648 15.4538 17.4783 16.0299 15.9163 16.0581C14.4314 16.086 12.9975 15.6148 11.8337 14.7294C15.379 14.2735 18.147 11.2405 18.1668 7.59391C18.1673 7.49946 18.1293 7.40693 18.0628 7.34039C17.9913 7.26838 17.8951 7.22906 17.8027 7.23578C16.2929 7.24531 14.851 7.71746 13.6326 8.60149C13.4738 8.71697 13.4384 8.94016 13.5537 9.09901C13.6097 9.17585 13.6921 9.22644 13.7859 9.24141C13.8798 9.25635 13.9742 9.2339 14.0512 9.17795C15.0468 8.45539 16.2157 8.03622 17.442 7.96042C17.3413 9.57388 16.6437 11.0819 15.4656 12.2236C14.4458 13.2121 13.1596 13.8321 11.7791 14.0169C13.9655 11.1919 13.7912 7.10341 11.2407 4.5251C11.1757 4.45935 11.0834 4.42166 10.9874 4.42166C10.8915 4.42166 10.7993 4.45935 10.7343 4.52503C9.64853 5.62262 8.95672 7.00802 8.73375 8.53162C8.70534 8.72581 8.84021 8.90704 9.03544 8.93569C9.22971 8.96306 9.41032 8.82795 9.4385 8.63474C9.62094 7.38853 10.1553 6.23815 10.9872 5.29689C12.0487 6.50121 12.6148 8.05277 12.5848 9.68624C12.5587 11.1 12.0864 12.4433 11.2423 13.5478C10.7903 10.0319 7.79422 7.27451 4.1935 7.23741C4.09633 7.23677 4.00578 7.273 3.93763 7.34044C3.8706 7.40686 3.83209 7.49911 3.83209 7.59354V8.25458C3.83209 8.26623 3.83266 8.27807 3.83392 8.29066C3.9572 9.50207 4.39187 10.6703 5.09087 11.669C5.20311 11.8296 5.42539 11.8689 5.58693 11.7566C5.66486 11.7021 5.71691 11.6205 5.73341 11.5268C5.74996 11.4331 5.72906 11.3386 5.67447 11.2606C5.04854 10.3663 4.65785 9.32072 4.54435 8.23625V7.96348C6.13928 8.06964 7.63058 8.76857 8.75921 9.94293C9.73434 10.9575 10.3465 12.2338 10.5297 13.6014C7.72496 11.441 3.66015 11.6538 1.10666 14.155C1.03834 14.2222 1.00048 14.3119 1.00001 14.4074C0.999462 14.502 1.03755 14.5945 1.10437 14.6611L1.57036 15.127C1.57903 15.1359 1.5881 15.1441 1.59852 15.1527C2.8722 16.1908 4.48156 16.7626 6.13037 16.7625C6.13054 16.7625 6.13084 16.7625 6.13094 16.7625H6.14418C7.43277 16.7615 8.69657 16.4153 9.79896 15.7613C9.88074 15.7128 9.93878 15.6352 9.9623 15.5431C9.98589 15.4509 9.97208 15.355 9.92364 15.2733C9.87523 15.1915 9.79777 15.1335 9.70556 15.1099C9.61321 15.0862 9.51722 15.1002 9.43541 15.1487C8.44364 15.7371 7.30609 16.0489 6.14536 16.0502H6.12713C4.64903 16.0494 3.20591 15.5387 2.06255 14.6118L1.86954 14.4189C3.07356 13.3642 4.61897 12.8 6.24476 12.8257C7.92849 12.8528 9.5083 13.5129 10.6932 14.6843C10.6936 14.6847 10.694 14.6851 10.6944 14.6855C10.6945 14.6855 10.6945 14.6856 10.6945 14.6856C10.6945 14.6856 10.6946 14.6856 10.6946 14.6857C10.6953 14.6863 10.696 14.687 10.6966 14.6877C12.0564 16.0318 13.8659 16.7719 15.7928 16.7719C15.7931 16.7719 15.7936 16.7719 15.7938 16.7719C17.7226 16.7718 19.5341 16.0307 20.8945 14.685C20.9615 14.6186 21 14.5263 21 14.4319C21 14.3374 20.9615 14.2452 20.8943 14.1787Z" fill="#22221F" stroke="#22221F" stroke-width="0.4"/>
</svg>
