<svg width="174" height="33" viewBox="0 0 174 33" fill="none" xmlns="http://www.w3.org/2000/svg">
<path d="M70.4266 16.955V20.8484C70.4266 21.5912 70.4353 22.2423 70.4528 22.8016C70.4703 23.3522 70.4965 23.8285 70.5314 24.2305C70.5664 24.6325 70.6057 24.9689 70.6494 25.2398C70.7019 25.5108 70.7543 25.738 70.8067 25.9215V25.9739H67.6606V25.9215C67.713 25.738 67.7611 25.5108 67.8048 25.2398C67.8572 24.9689 67.8966 24.6325 67.9228 24.2305C67.9577 23.8285 67.9839 23.3522 68.0014 22.8016C68.0276 22.2423 68.0407 21.5912 68.0407 20.8484V17.2172L62.1811 9.24699C61.9801 8.97607 61.7791 8.727 61.5781 8.49978C61.3858 8.27256 61.2023 8.07593 61.0275 7.90988C60.8527 7.73509 60.6954 7.5909 60.5556 7.47729C60.4157 7.36368 60.3065 7.28065 60.2278 7.22822V7.17578H64.1998C64.1998 7.37678 64.2829 7.70888 64.4489 8.17206C64.6237 8.6265 64.9339 9.16396 65.3796 9.78445L69.6794 15.6703L73.8873 9.52227C74.0359 9.30379 74.1845 9.08094 74.333 8.85372C74.4816 8.6265 74.617 8.40802 74.7394 8.19828C74.8617 7.98853 74.9579 7.79627 75.0278 7.62148C75.1064 7.4467 75.1458 7.29813 75.1458 7.17578H77.702V7.22822C77.5097 7.39426 77.2519 7.64333 76.9286 7.97542C76.6052 8.29878 76.2557 8.73137 75.8799 9.27321L70.4266 16.955Z" fill="#F9F5E8"/>
<path d="M76.6009 19.236C76.6009 18.2484 76.7844 17.3352 77.1514 16.4962C77.5185 15.6485 78.021 14.9144 78.659 14.2939C79.3057 13.6734 80.066 13.1884 80.9399 12.8388C81.8138 12.4893 82.7533 12.3145 83.7583 12.3145C84.7459 12.3145 85.6722 12.4805 86.5374 12.8126C87.4113 13.136 88.1717 13.5991 88.8184 14.2022C89.4651 14.8052 89.9719 15.5393 90.339 16.4044C90.7148 17.2696 90.9027 18.2397 90.9027 19.3146C90.9027 20.2148 90.7454 21.08 90.4308 21.9102C90.1161 22.7404 89.653 23.4745 89.0412 24.1125C88.4295 24.7504 87.6779 25.2617 86.7865 25.6462C85.9038 26.022 84.8857 26.2099 83.7321 26.2099C82.7533 26.2099 81.8313 26.0482 80.9661 25.7249C80.1009 25.4015 79.345 24.9383 78.6983 24.3353C78.0516 23.7323 77.5403 23.0026 77.1645 22.1461C76.7888 21.281 76.6009 20.3109 76.6009 19.236ZM84.0336 25.253C84.6541 25.253 85.2221 25.1306 85.7378 24.8859C86.2621 24.6412 86.7122 24.2873 87.088 23.8241C87.4638 23.3609 87.7565 22.7972 87.9663 22.133C88.176 21.4689 88.2809 20.7173 88.2809 19.8783C88.2809 18.9345 88.1804 18.0605 87.9794 17.2565C87.7784 16.4438 87.4769 15.7446 87.0749 15.1591C86.6816 14.5648 86.1835 14.1017 85.5805 13.7696C84.9774 13.4375 84.2739 13.2714 83.4699 13.2714C82.8494 13.2714 82.2814 13.3938 81.7658 13.6385C81.2502 13.8744 80.8001 14.2196 80.4156 14.6741C80.0398 15.1285 79.747 15.6878 79.5373 16.352C79.3275 17.0075 79.2226 17.7547 79.2226 18.5936C79.2226 19.5375 79.3231 20.4158 79.5241 21.2285C79.7339 22.0413 80.0398 22.7492 80.4418 23.3522C80.8438 23.9464 81.3419 24.414 81.9362 24.7548C82.5392 25.0869 83.2383 25.253 84.0336 25.253Z" fill="#F9F5E8"/>
<path d="M98.9253 31.9647C99.6332 31.9647 100.232 31.8861 100.721 31.7288C101.211 31.5802 101.613 31.3704 101.927 31.0995C102.251 30.8286 102.495 30.5009 102.661 30.1164C102.836 29.7406 102.963 29.3255 103.042 28.871C103.129 28.4166 103.177 27.9315 103.186 27.4159C103.203 26.9003 103.212 26.3672 103.212 25.8166V25.384C102.784 25.6113 102.268 25.8079 101.665 25.9739C101.062 26.1313 100.38 26.2099 99.6201 26.2099C98.5801 26.2099 97.6363 26.0482 96.7886 25.7249C95.9409 25.4015 95.2155 24.9383 94.6125 24.3353C94.0182 23.7323 93.5594 23.0026 93.2361 22.1461C92.9127 21.281 92.751 20.3109 92.751 19.236C92.751 18.2484 92.9083 17.3308 93.2229 16.4831C93.5463 15.6354 93.9964 14.9013 94.5732 14.2808C95.1587 13.6603 95.8535 13.1753 96.6575 12.8257C97.4702 12.4674 98.366 12.2883 99.3448 12.2883C99.7643 12.2883 100.149 12.3232 100.498 12.3931C100.848 12.463 101.171 12.5592 101.468 12.6815C101.774 12.7951 102.058 12.9306 102.321 13.0879C102.591 13.2365 102.854 13.3981 103.107 13.5729L102.976 12.6029V12.5504H105.873V12.6029C105.821 12.7864 105.768 13.0136 105.716 13.2845C105.672 13.5554 105.633 13.8919 105.598 14.2939C105.572 14.6959 105.545 15.1766 105.519 15.7359C105.502 16.2865 105.493 16.9332 105.493 17.676V26.5901C105.493 27.3941 105.384 28.1762 105.165 28.9366C104.955 29.7056 104.593 30.3873 104.077 30.9815C103.57 31.5758 102.897 32.0521 102.058 32.4104C101.219 32.7687 100.175 32.9479 98.9253 32.9479C98.4884 32.9479 98.047 32.9042 97.6013 32.8168C97.1556 32.7381 96.7318 32.6376 96.3298 32.5153C95.9277 32.4017 95.5651 32.275 95.2417 32.1351C94.9184 31.9953 94.6606 31.8729 94.4683 31.7681L94.0619 29.2512L94.2717 29.1987C94.4814 29.6532 94.7654 30.0508 95.1237 30.3916C95.4908 30.7412 95.8884 31.0296 96.3166 31.2568C96.7449 31.4928 97.1862 31.6676 97.6406 31.7812C98.1038 31.9035 98.5321 31.9647 98.9253 31.9647ZM100.21 25.253C100.839 25.253 101.407 25.1481 101.914 24.9383C102.43 24.7286 102.862 24.4839 103.212 24.2042V17.676C103.212 17.1866 103.208 16.7453 103.199 16.352C103.19 15.95 103.186 15.5873 103.186 15.264C102.976 14.9406 102.731 14.6566 102.452 14.4119C102.181 14.1585 101.888 13.9487 101.573 13.7827C101.267 13.6079 100.953 13.4768 100.629 13.3894C100.306 13.2933 99.9871 13.2452 99.6725 13.2452C99.0083 13.2452 98.4097 13.3676 97.8766 13.6123C97.3435 13.857 96.8891 14.2109 96.5133 14.6741C96.1462 15.1285 95.8622 15.6878 95.6612 16.352C95.4689 17.0075 95.3728 17.7547 95.3728 18.5936C95.3728 19.5375 95.4777 20.4158 95.6874 21.2285C95.8972 22.0413 96.203 22.7492 96.605 23.3522C97.0158 23.9464 97.5227 24.414 98.1257 24.7548C98.7287 25.0869 99.4235 25.253 100.21 25.253Z" fill="#F9F5E8"/>
<path d="M108.482 22.1068C108.482 21.4164 108.622 20.8178 108.901 20.3109C109.19 19.804 109.57 19.3714 110.042 19.0131C110.514 18.6548 111.051 18.3664 111.654 18.1479C112.257 17.9207 112.882 17.7459 113.529 17.6236C114.175 17.4925 114.813 17.4051 115.443 17.3614C116.072 17.309 116.649 17.2784 117.173 17.2696V16.6011C117.173 16.0243 117.099 15.5262 116.95 15.1067C116.801 14.6872 116.592 14.342 116.321 14.0711C116.05 13.7914 115.722 13.586 115.338 13.4549C114.962 13.3151 114.547 13.2452 114.092 13.2452C113.778 13.2452 113.467 13.2714 113.162 13.3239C112.856 13.3763 112.537 13.4637 112.205 13.586C111.881 13.7084 111.536 13.8744 111.169 14.0842C110.811 14.2939 110.422 14.5605 110.002 14.8838L109.871 14.8052L110.763 12.9568C111.051 12.8257 111.335 12.7208 111.615 12.6422C111.894 12.5548 112.178 12.4849 112.467 12.4325C112.755 12.38 113.048 12.3451 113.345 12.3276C113.651 12.3014 113.97 12.2883 114.302 12.2883C115.22 12.2883 116.002 12.4019 116.649 12.6291C117.304 12.8476 117.837 13.1534 118.248 13.5467C118.667 13.9312 118.973 14.3857 119.165 14.91C119.358 15.4256 119.454 15.9806 119.454 16.5749V20.8484C119.454 21.5912 119.463 22.2423 119.48 22.8016C119.506 23.3522 119.533 23.8285 119.559 24.2305C119.594 24.6325 119.633 24.9689 119.677 25.2398C119.729 25.5108 119.782 25.738 119.834 25.9215V25.9739H116.937V25.9215C116.981 25.7817 117.011 25.6244 117.029 25.4496C117.055 25.2748 117.077 25.0651 117.094 24.8204C116.911 24.9777 116.692 25.1393 116.439 25.3054C116.194 25.4714 115.91 25.6244 115.587 25.7642C115.272 25.8953 114.918 26.0002 114.525 26.0788C114.14 26.1662 113.717 26.2099 113.253 26.2099C111.733 26.2099 110.557 25.856 109.727 25.1481C108.897 24.4315 108.482 23.4177 108.482 22.1068ZM117.173 18.2921C116.378 18.3009 115.613 18.3489 114.879 18.4363C114.145 18.515 113.494 18.6854 112.926 18.9476C112.366 19.2098 111.916 19.5855 111.575 20.0749C111.243 20.5556 111.077 21.1979 111.077 22.0019C111.077 23.0332 111.335 23.8197 111.851 24.3616C112.366 24.9034 113.079 25.1743 113.987 25.1743C114.407 25.1743 114.787 25.1175 115.128 25.0039C115.477 24.8815 115.783 24.733 116.046 24.5582C116.316 24.3747 116.544 24.178 116.727 23.9683C116.911 23.7498 117.051 23.5401 117.147 23.3391C117.164 23.007 117.173 22.6399 117.173 22.2379C117.173 21.8272 117.173 21.364 117.173 20.8484V18.2921Z" fill="#F9F5E8"/>
<path d="M138.986 16.955V20.8484C138.986 21.5912 138.995 22.2423 139.012 22.8016C139.03 23.3522 139.056 23.8285 139.091 24.2305C139.126 24.6325 139.165 24.9689 139.209 25.2398C139.261 25.5108 139.314 25.738 139.366 25.9215V25.9739H136.22V25.9215C136.273 25.738 136.321 25.5108 136.364 25.2398C136.417 24.9689 136.456 24.6325 136.482 24.2305C136.517 23.8285 136.543 23.3522 136.561 22.8016C136.587 22.2423 136.6 21.5912 136.6 20.8484V17.2172L130.741 9.24699C130.54 8.97607 130.339 8.727 130.138 8.49978C129.945 8.27256 129.762 8.07593 129.587 7.90988C129.412 7.73509 129.255 7.5909 129.115 7.47729C128.975 7.36368 128.866 7.28065 128.787 7.22822V7.17578H132.759C132.759 7.37678 132.842 7.70888 133.008 8.17206C133.183 8.6265 133.493 9.16396 133.939 9.78445L138.239 15.6703L142.447 9.52227C142.595 9.30379 142.744 9.08094 142.893 8.85372C143.041 8.6265 143.177 8.40802 143.299 8.19828C143.421 7.98853 143.517 7.79627 143.587 7.62148C143.666 7.4467 143.705 7.29813 143.705 7.17578H146.262V7.22822C146.069 7.39426 145.811 7.64333 145.488 7.97542C145.165 8.29878 144.815 8.73137 144.439 9.27321L138.986 16.955Z" fill="#F9F5E8"/>
<path d="M145.16 19.236C145.16 18.2484 145.344 17.3352 145.711 16.4962C146.078 15.6485 146.581 14.9144 147.219 14.2939C147.865 13.6734 148.626 13.1884 149.499 12.8388C150.373 12.4893 151.313 12.3145 152.318 12.3145C153.305 12.3145 154.232 12.4805 155.097 12.8126C155.971 13.136 156.731 13.5991 157.378 14.2022C158.025 14.8052 158.531 15.5393 158.899 16.4044C159.274 17.2696 159.462 18.2397 159.462 19.3146C159.462 20.2148 159.305 21.08 158.99 21.9102C158.676 22.7404 158.213 23.4745 157.601 24.1125C156.989 24.7504 156.237 25.2617 155.346 25.6462C154.463 26.022 153.445 26.2099 152.292 26.2099C151.313 26.2099 150.391 26.0482 149.526 25.7249C148.66 25.4015 147.905 24.9383 147.258 24.3353C146.611 23.7323 146.1 23.0026 145.724 22.1461C145.348 21.281 145.16 20.3109 145.16 19.236ZM152.593 25.253C153.214 25.253 153.782 25.1306 154.297 24.8859C154.822 24.6412 155.272 24.2873 155.648 23.8241C156.023 23.3609 156.316 22.7972 156.526 22.133C156.736 21.4689 156.84 20.7173 156.84 19.8783C156.84 18.9345 156.74 18.0605 156.539 17.2565C156.338 16.4438 156.036 15.7446 155.634 15.1591C155.241 14.5648 154.743 14.1017 154.14 13.7696C153.537 13.4375 152.833 13.2714 152.029 13.2714C151.409 13.2714 150.841 13.3938 150.325 13.6385C149.81 13.8744 149.36 14.2196 148.975 14.6741C148.599 15.1285 148.307 15.6878 148.097 16.352C147.887 17.0075 147.782 17.7547 147.782 18.5936C147.782 19.5375 147.883 20.4158 148.084 21.2285C148.293 22.0413 148.599 22.7492 149.001 23.3522C149.403 23.9464 149.901 24.414 150.496 24.7548C151.099 25.0869 151.798 25.253 152.593 25.253Z" fill="#F9F5E8"/>
<path d="M164.614 21.3858C164.614 22.5394 164.841 23.3871 165.296 23.929C165.759 24.4708 166.379 24.7417 167.157 24.7417C167.437 24.7417 167.751 24.6849 168.101 24.5713C168.451 24.4489 168.809 24.2916 169.176 24.0994C169.552 23.8984 169.923 23.6668 170.29 23.4046C170.666 23.1424 171.011 22.8628 171.326 22.5656C171.343 22.3122 171.352 22.0456 171.352 21.766C171.352 21.4776 171.352 21.1717 171.352 20.8484V17.676C171.352 16.9332 171.339 16.2865 171.313 15.7359C171.295 15.1766 171.269 14.6959 171.234 14.2939C171.208 13.8919 171.168 13.5554 171.116 13.2845C171.072 13.0136 171.024 12.7864 170.972 12.6029V12.5504H174V12.6029C173.948 12.7864 173.899 13.0136 173.856 13.2845C173.812 13.5554 173.773 13.8919 173.738 14.2939C173.703 14.6959 173.677 15.1766 173.659 15.7359C173.642 16.2865 173.633 16.9332 173.633 17.676V20.8484C173.633 21.5912 173.642 22.2423 173.659 22.8016C173.677 23.3522 173.703 23.8285 173.738 24.2305C173.773 24.6325 173.812 24.9689 173.856 25.2398C173.899 25.5108 173.948 25.738 174 25.9215V25.9739H170.972V25.9215C171.024 25.703 171.077 25.4234 171.129 25.0825C171.19 24.7417 171.234 24.296 171.26 23.7454C170.902 24.0513 170.513 24.3528 170.094 24.6499C169.683 24.9471 169.25 25.2136 168.796 25.4496C168.35 25.6856 167.896 25.8734 167.432 26.0133C166.978 26.1618 166.528 26.2361 166.082 26.2361C165.401 26.2361 164.819 26.1181 164.339 25.8822C163.867 25.6462 163.478 25.336 163.172 24.9515C162.875 24.5669 162.656 24.13 162.517 23.6406C162.386 23.1512 162.32 22.6487 162.32 22.133V17.676C162.32 16.9332 162.311 16.2865 162.294 15.7359C162.276 15.1766 162.25 14.6959 162.215 14.2939C162.18 13.8919 162.141 13.5554 162.097 13.2845C162.053 13.0136 162.005 12.7864 161.953 12.6029V12.5504H164.981V12.6029C164.929 12.7864 164.881 13.0136 164.837 13.2845C164.793 13.5554 164.754 13.8919 164.719 14.2939C164.684 14.6959 164.658 15.1766 164.64 15.7359C164.623 16.2865 164.614 16.9332 164.614 17.676V21.3858Z" fill="#F9F5E8"/>
<path d="M49.4904 24.2727C46.7603 21.5717 43.3139 19.8507 39.5226 19.2956C39.039 19.2247 38.5887 19.5622 38.5188 20.0443C38.4482 20.5273 38.7837 20.9781 39.267 21.0492C42.3678 21.5029 45.2294 22.8324 47.5706 24.9023C44.6905 27.4446 40.9925 28.8777 37.1068 28.948C33.4129 29.0173 29.8458 27.8452 26.9508 25.6426C35.7702 24.5085 42.6561 16.9633 42.7053 7.89183C42.7066 7.65686 42.612 7.42668 42.4467 7.26114C42.2687 7.08203 42.0295 6.9842 41.7997 7.00092C38.0438 7.02464 34.4568 8.19919 31.4257 10.3984C31.0306 10.6856 30.9427 11.2409 31.2295 11.636C31.3687 11.8272 31.5738 11.953 31.8072 11.9903C32.0407 12.0274 32.2756 11.9716 32.4671 11.8324C34.9439 10.0349 37.8517 8.99216 40.9022 8.80358C40.6519 12.8173 38.9163 16.5688 35.9856 19.4091C33.4487 21.868 30.249 23.4105 26.8148 23.8702C32.2538 16.8425 31.8202 6.67163 25.4755 0.257637C25.3139 0.0940666 25.0843 0.000299454 24.8455 0.000299454C24.6069 0.000299454 24.3773 0.0940647 24.2158 0.257452C21.5147 2.9879 19.7937 6.43432 19.239 10.2245C19.1684 10.7076 19.5039 11.1585 19.9895 11.2297C20.4728 11.2978 20.9221 10.9617 20.9922 10.4811C21.4461 7.38091 22.7754 4.51915 24.8449 2.1776C27.4855 5.17356 28.8938 9.03333 28.8191 13.0969C28.7543 16.6138 27.5794 19.9555 25.4794 22.7031C24.3551 13.9568 16.9018 7.09727 7.94439 7.00497C7.70266 7.00338 7.4774 7.09352 7.30787 7.26127C7.1411 7.4265 7.04531 7.656 7.04531 7.89091V9.53535C7.04531 9.56435 7.04672 9.59378 7.04985 9.62512C7.35653 12.6387 8.43787 15.5448 10.1767 18.0294C10.456 18.4288 11.0089 18.5267 11.4108 18.2473C11.6046 18.1116 11.7341 17.9086 11.7752 17.6756C11.8163 17.4424 11.7643 17.2073 11.6285 17.0134C10.0714 14.7887 9.09953 12.1876 8.81718 9.48975V8.8112C12.7849 9.0753 16.4947 10.814 19.3024 13.7354C21.7282 16.2593 23.251 19.4343 23.7068 22.8364C16.7295 17.4622 6.61757 17.9916 0.265341 24.2138C0.0953798 24.3808 0.00118176 24.604 1.42702e-05 24.8415C-0.00133756 25.0768 0.0934132 25.307 0.259626 25.4728L1.41888 26.6317C1.44045 26.6539 1.463 26.6743 1.48893 26.6957C4.65743 29.2782 8.66098 30.7004 12.7627 30.7003C12.7631 30.7003 12.7638 30.7003 12.7641 30.7003H12.797C16.0026 30.6978 19.1466 29.8366 21.8889 28.2096C22.0924 28.0889 22.2368 27.896 22.2953 27.6668C22.3539 27.4373 22.3196 27.1989 22.1991 26.9957C22.0787 26.7922 21.886 26.6478 21.6566 26.5893C21.4268 26.5302 21.1881 26.5649 20.9845 26.6856C18.5173 28.1494 15.6875 28.925 12.8 28.9283H12.7546C9.07759 28.9264 5.48757 27.6558 2.64327 25.3501L2.16312 24.8703C5.15834 22.2464 9.00281 20.8429 13.0472 20.9068C17.2358 20.9743 21.1659 22.6164 24.1136 25.5305C24.1146 25.5315 24.1156 25.5324 24.1166 25.5334C24.1167 25.5335 24.1167 25.5335 24.1167 25.5336C24.1168 25.5337 24.1169 25.5337 24.117 25.5338C24.1186 25.5354 24.1204 25.5372 24.1221 25.5388C27.5046 28.8824 32.0062 30.7236 36.7997 30.7236C36.8004 30.7236 36.8015 30.7236 36.8021 30.7236C41.6003 30.7234 46.1066 28.8798 49.4911 25.5322C49.6576 25.3668 49.7534 25.1373 49.7534 24.9025C49.7534 24.6675 49.6576 24.438 49.4904 24.2727Z" fill="#F9F5E8"/>
</svg>
