<svg width="256" height="256" viewBox="0 0 256 256" fill="none" xmlns="http://www.w3.org/2000/svg">
<rect width="256" height="256" rx="40" fill="#FFE146"/>
<path d="M207.154 155.255C198.375 146.569 187.292 141.035 175.099 139.249C173.544 139.021 172.096 140.107 171.871 141.657C171.644 143.21 172.723 144.66 174.277 144.889C184.249 146.348 193.451 150.623 200.98 157.28C191.718 165.455 179.826 170.064 167.33 170.29C155.451 170.513 143.98 166.744 134.67 159.661C163.032 156.014 185.176 131.749 185.334 102.577C185.338 101.821 185.034 101.081 184.503 100.548C183.93 99.9723 183.161 99.6577 182.422 99.7115C170.343 99.7878 158.808 103.565 149.061 110.637C147.79 111.561 147.507 113.347 148.43 114.617C148.877 115.232 149.537 115.637 150.287 115.757C151.038 115.876 151.794 115.696 152.41 115.249C160.375 109.468 169.726 106.115 179.536 105.509C178.731 118.416 173.149 130.481 163.725 139.614C155.566 147.522 145.277 152.482 134.233 153.961C151.724 131.36 150.329 98.6525 129.926 78.026C129.406 77.5 128.667 77.1985 127.9 77.1985C127.132 77.1985 126.394 77.5 125.875 78.0255C117.188 86.8062 111.654 97.8894 109.87 110.078C109.643 111.632 110.722 113.082 112.284 113.311C113.838 113.53 115.283 112.449 115.508 110.903C116.968 100.933 121.242 91.7305 127.898 84.2004C136.39 93.8349 140.918 106.247 140.678 119.315C140.47 130.625 136.692 141.371 129.938 150.208C126.322 122.081 102.354 100.021 73.548 99.7245C72.7707 99.7194 72.0463 100.009 71.5011 100.549C70.9648 101.08 70.6567 101.818 70.6567 102.574V107.862C70.6567 107.955 70.6612 108.05 70.6713 108.151C71.6576 117.842 75.135 127.187 80.727 135.178C81.6249 136.462 83.4031 136.777 84.6955 135.878C85.3189 135.442 85.7353 134.789 85.8673 134.04C85.9996 133.29 85.8325 132.534 85.3958 131.91C80.3883 124.756 77.2628 116.391 76.3548 107.715V105.533C89.1143 106.382 101.045 111.974 110.074 121.369C117.875 129.485 122.772 139.696 124.238 150.636C101.8 133.354 69.2812 135.056 48.8533 155.066C48.3067 155.603 48.0038 156.321 48 157.084C47.9957 157.841 48.3004 158.581 48.8349 159.114L52.5629 162.841C52.6323 162.913 52.7048 162.978 52.7882 163.047C62.9776 171.352 75.8525 175.926 89.0429 175.925C89.0443 175.925 89.0467 175.925 89.0475 175.925H89.1534C99.4622 175.917 109.573 173.148 118.392 167.916C119.046 167.528 119.51 166.907 119.698 166.17C119.887 165.432 119.777 164.665 119.389 164.012C119.002 163.357 118.382 162.893 117.645 162.705C116.906 162.515 116.138 162.627 115.483 163.015C107.549 167.722 98.4487 170.216 89.1629 170.227H89.0171C77.1922 170.221 65.6472 166.135 56.5004 158.72L54.9563 157.177C64.5885 148.739 76.9518 144.225 89.958 144.431C103.428 144.648 116.066 149.929 125.546 159.3C125.549 159.303 125.552 159.306 125.556 159.309C125.556 159.31 125.556 159.31 125.556 159.31C125.556 159.31 125.557 159.31 125.557 159.311C125.562 159.316 125.568 159.321 125.573 159.327C136.451 170.079 150.927 176 166.343 176C166.345 176 166.348 176 166.35 176C181.781 176 196.272 170.071 207.156 159.305C207.692 158.774 208 158.036 208 157.28C208 156.525 207.692 155.787 207.154 155.255Z" fill="#22221F"/>
</svg>
