<svg width="32" height="32" viewBox="0 0 32 32" fill="none" xmlns="http://www.w3.org/2000/svg">
<rect width="32" height="32" rx="12" fill="#FFE146"/>
<path d="M25.8943 19.4068C24.7968 18.3211 23.4114 17.6293 21.8874 17.4061C21.693 17.3776 21.512 17.5133 21.4839 17.7071C21.4555 17.9013 21.5904 18.0825 21.7846 18.1111C23.0311 18.2934 24.1814 18.8279 25.1225 19.6599C23.9648 20.6819 22.4783 21.258 20.9163 21.2862C19.4314 21.3141 17.9975 20.8429 16.8337 19.9575C20.379 19.5016 23.147 16.4686 23.1668 12.822C23.1673 12.7276 23.1293 12.635 23.0628 12.5685C22.9913 12.4965 22.8951 12.4572 22.8027 12.4639C21.2929 12.4734 19.851 12.9456 18.6326 13.8296C18.4738 13.9451 18.4384 14.1683 18.5537 14.3271C18.6097 14.404 18.6921 14.4545 18.7859 14.4695C18.8798 14.4845 18.9742 14.462 19.0512 14.4061C20.0468 13.6835 21.2157 13.2643 22.442 13.1885C22.3413 14.802 21.6437 16.31 20.4656 17.4518C19.4458 18.4402 18.1596 19.0602 16.7791 19.2451C18.9655 16.42 18.7912 12.3315 16.2407 9.75321C16.1757 9.68746 16.0834 9.64977 15.9874 9.64977C15.8915 9.64977 15.7993 9.68746 15.7343 9.75314C14.6485 10.8507 13.9567 12.2361 13.7337 13.7597C13.7053 13.9539 13.8402 14.1351 14.0354 14.1638C14.2297 14.1912 14.4103 14.0561 14.4385 13.8629C14.6209 12.6166 15.1553 11.4663 15.9872 10.525C17.0487 11.7293 17.6148 13.2809 17.5848 14.9143C17.5587 16.3281 17.0864 17.6714 16.2423 18.7759C15.7903 15.26 12.7942 12.5026 9.1935 12.4655C9.09633 12.4649 9.00578 12.5011 8.93763 12.5685C8.8706 12.635 8.83209 12.7272 8.83209 12.8217V13.4827C8.83209 13.4943 8.83266 13.5062 8.83392 13.5188C8.9572 14.7302 9.39187 15.8984 10.0909 16.8972C10.2031 17.0577 10.4254 17.097 10.5869 16.9847C10.6649 16.9302 10.7169 16.8486 10.7334 16.7549C10.75 16.6612 10.7291 16.5667 10.6745 16.4887C10.0485 15.5945 9.65785 14.5488 9.54435 13.4644V13.1916C11.1393 13.2978 12.6306 13.9967 13.7592 15.171C14.7343 16.1856 15.3465 17.4619 15.5297 18.8295C12.725 16.6691 8.66015 16.8819 6.10666 19.3832C6.03834 19.4503 6.00048 19.54 6.00001 19.6355C5.99946 19.7301 6.03755 19.8226 6.10437 19.8892L6.57036 20.3551C6.57903 20.364 6.5881 20.3722 6.59852 20.3808C7.8722 21.4189 9.48156 21.9907 11.1304 21.9906C11.1305 21.9906 11.1308 21.9906 11.1309 21.9906H11.1442C12.4328 21.9896 13.6966 21.6434 14.799 20.9894C14.8807 20.9409 14.9388 20.8634 14.9623 20.7712C14.9859 20.679 14.9721 20.5831 14.9236 20.5014C14.8752 20.4196 14.7978 20.3616 14.7056 20.3381C14.6132 20.3143 14.5172 20.3283 14.4354 20.3768C13.4436 20.9652 12.3061 21.277 11.1454 21.2783H11.1271C9.64903 21.2775 8.20591 20.7668 7.06255 19.8399L6.86954 19.6471C8.07356 18.5923 9.61897 18.0281 11.2448 18.0538C12.9285 18.0809 14.5083 18.741 15.6932 19.9124C15.6936 19.9128 15.694 19.9132 15.6944 19.9136C15.6945 19.9136 15.6945 19.9137 15.6945 19.9137C15.6945 19.9137 15.6946 19.9137 15.6946 19.9138C15.6953 19.9144 15.696 19.9151 15.6966 19.9158C17.0564 21.2599 18.8659 22 20.7928 22C20.7931 22 20.7936 22 20.7938 22C22.7226 21.9999 24.5341 21.2588 25.8945 19.9131C25.9615 19.8467 26 19.7544 26 19.66C26 19.5655 25.9615 19.4733 25.8943 19.4068Z" fill="#22221F"/>
</svg>
