<svg width="420" height="237" viewBox="0 0 420 237" fill="none" xmlns="http://www.w3.org/2000/svg">
<rect x="24" y="161" width="176.522" height="50" rx="25" fill="#FFE146"/>
<path d="M71.783 180.432V192H70.215V180.432H71.783ZM76.3366 181.6C76.3366 182.768 75.5206 183.712 74.4006 183.856V183.184C75.0246 183.072 75.4726 182.656 75.4726 182.144C75.3606 182.208 75.2166 182.24 75.0246 182.24C74.5446 182.24 74.1286 181.888 74.1286 181.264C74.1286 180.656 74.5446 180.208 75.1846 180.208C75.8246 180.208 76.3366 180.736 76.3366 181.6ZM79.9161 192H78.4121V184.176H79.7561L79.9001 185.2C80.3001 184.464 81.1321 183.952 82.2361 183.952C83.4521 183.952 84.3161 184.56 84.7161 185.536C85.0841 184.56 86.0281 183.952 87.2441 183.952C89.0361 183.952 90.1241 185.072 90.1241 186.88V192H88.6521V187.248C88.6521 186.016 87.9641 185.312 86.9081 185.312C85.7721 185.312 85.0201 186.112 85.0201 187.36V192H83.5321V187.232C83.5321 186 82.8601 185.328 81.8041 185.328C80.6681 185.328 79.9161 186.112 79.9161 187.36V192ZM98.872 192.192C97.192 192.192 96.2 191.248 96.2 189.824C96.2 188.384 97.272 187.488 99.112 187.344L101.576 187.152V186.928C101.576 185.616 100.792 185.152 99.736 185.152C98.472 185.152 97.752 185.712 97.752 186.656H96.44C96.44 185.024 97.784 183.952 99.8 183.952C101.736 183.952 103.048 184.976 103.048 187.088V192H101.768L101.608 190.736C101.208 191.632 100.136 192.192 98.872 192.192ZM99.304 191.024C100.728 191.024 101.592 190.096 101.592 188.624V188.208L99.592 188.368C98.264 188.496 97.72 189.008 97.72 189.776C97.72 190.608 98.328 191.024 99.304 191.024ZM110.866 192H109.506V180.224H111.01V185.52C111.522 184.496 112.578 183.952 113.858 183.952C116.098 183.952 117.442 185.712 117.442 188.128C117.442 190.496 116.034 192.192 113.762 192.192C112.53 192.192 111.49 191.648 110.978 190.576L110.866 192ZM111.026 188.064C111.026 189.696 111.954 190.832 113.49 190.832C115.026 190.832 115.938 189.68 115.938 188.064C115.938 186.464 115.026 185.312 113.49 185.312C111.954 185.312 111.026 186.464 111.026 188.064ZM124.32 184.176H125.808V192H124.464L124.304 190.816C123.856 191.632 122.816 192.192 121.664 192.192C119.84 192.192 118.816 190.96 118.816 189.04V184.176H120.32V188.544C120.32 190.224 121.04 190.864 122.192 190.864C123.568 190.864 124.32 189.984 124.32 188.304V184.176ZM130.198 192H128.694V185.44H127.158V184.176H128.694V181.728H130.198V184.176H131.734V185.44H130.198V192ZM135.433 192H133.929V185.44H132.393V184.176H133.929V181.728H135.433V184.176H136.969V185.44H135.433V192ZM137.728 188.08C137.728 185.664 139.456 183.968 141.808 183.968C144.144 183.968 145.872 185.664 145.872 188.08C145.872 190.496 144.144 192.192 141.808 192.192C139.456 192.192 137.728 190.496 137.728 188.08ZM139.248 188.08C139.248 189.712 140.288 190.848 141.808 190.848C143.312 190.848 144.368 189.712 144.368 188.08C144.368 186.448 143.312 185.312 141.808 185.312C140.288 185.312 139.248 186.448 139.248 188.08ZM149.041 192H147.537V184.176H148.897L149.057 185.376C149.553 184.48 150.545 183.952 151.649 183.952C153.713 183.952 154.657 185.216 154.657 187.216V192H153.153V187.552C153.153 185.968 152.417 185.328 151.265 185.328C149.857 185.328 149.041 186.336 149.041 187.856V192Z" fill="#22221F"/>
<rect x="219.978" y="161.5" width="175.522" height="49" rx="24.5" stroke="#22221F"/>
<path d="M273.129 180.432V192H271.561V180.432H273.129ZM277.682 181.6C277.682 182.768 276.866 183.712 275.746 183.856V183.184C276.37 183.072 276.818 182.656 276.818 182.144C276.706 182.208 276.562 182.24 276.37 182.24C275.89 182.24 275.474 181.888 275.474 181.264C275.474 180.656 275.89 180.208 276.53 180.208C277.17 180.208 277.682 180.736 277.682 181.6ZM281.262 192H279.758V184.176H281.102L281.246 185.2C281.646 184.464 282.478 183.952 283.582 183.952C284.798 183.952 285.662 184.56 286.062 185.536C286.43 184.56 287.374 183.952 288.59 183.952C290.382 183.952 291.47 185.072 291.47 186.88V192H289.998V187.248C289.998 186.016 289.31 185.312 288.254 185.312C287.118 185.312 286.366 186.112 286.366 187.36V192H284.878V187.232C284.878 186 284.206 185.328 283.15 185.328C282.014 185.328 281.262 186.112 281.262 187.36V192ZM299.29 192H297.93V180.224H299.434V185.52C299.946 184.496 301.002 183.952 302.282 183.952C304.522 183.952 305.866 185.712 305.866 188.128C305.866 190.496 304.458 192.192 302.186 192.192C300.954 192.192 299.914 191.648 299.402 190.576L299.29 192ZM299.45 188.064C299.45 189.696 300.378 190.832 301.914 190.832C303.45 190.832 304.362 189.68 304.362 188.064C304.362 186.464 303.45 185.312 301.914 185.312C300.378 185.312 299.45 186.464 299.45 188.064ZM312.744 184.176H314.232V192H312.888L312.728 190.816C312.28 191.632 311.24 192.192 310.088 192.192C308.264 192.192 307.24 190.96 307.24 189.04V184.176H308.744V188.544C308.744 190.224 309.464 190.864 310.616 190.864C311.992 190.864 312.744 189.984 312.744 188.304V184.176ZM318.622 192H317.118V185.44H315.582V184.176H317.118V181.728H318.622V184.176H320.158V185.44H318.622V192ZM323.856 192H322.352V185.44H320.816V184.176H322.352V181.728H323.856V184.176H325.392V185.44H323.856V192ZM326.152 188.08C326.152 185.664 327.88 183.968 330.232 183.968C332.568 183.968 334.296 185.664 334.296 188.08C334.296 190.496 332.568 192.192 330.232 192.192C327.88 192.192 326.152 190.496 326.152 188.08ZM327.672 188.08C327.672 189.712 328.712 190.848 330.232 190.848C331.736 190.848 332.792 189.712 332.792 188.08C332.792 186.448 331.736 185.312 330.232 185.312C328.712 185.312 327.672 186.448 327.672 188.08ZM337.465 192H335.961V184.176H337.321L337.481 185.376C337.977 184.48 338.969 183.952 340.073 183.952C342.137 183.952 343.081 185.216 343.081 187.216V192H341.577V187.552C341.577 185.968 340.841 185.328 339.689 185.328C338.281 185.328 337.465 186.336 337.465 187.856V192Z" fill="#22221F"/>
<path d="M98.069 99.8322V103.927C98.069 104.708 98.0782 105.393 98.0966 105.981C98.115 106.56 98.1426 107.061 98.1793 107.484C98.2161 107.907 98.2575 108.261 98.3034 108.546C98.3586 108.83 98.4137 109.069 98.4689 109.262V109.318H95.16V109.262C95.2151 109.069 95.2657 108.83 95.3116 108.546C95.3668 108.261 95.4082 107.907 95.4357 107.484C95.4725 107.061 95.5001 106.56 95.5184 105.981C95.546 105.393 95.5598 104.708 95.5598 103.927V100.108L89.397 91.7255C89.1856 91.4405 88.9742 91.1786 88.7628 90.9396C88.5606 90.7006 88.3676 90.4938 88.1838 90.3192C88 90.1354 87.8345 89.9837 87.6874 89.8642C87.5404 89.7447 87.4255 89.6574 87.3428 89.6023V89.5471H91.5202C91.5202 89.7585 91.6075 90.1078 91.7822 90.5949C91.966 91.0729 92.2923 91.6381 92.7611 92.2907L97.2832 98.4811L101.709 92.015C101.865 91.7852 102.021 91.5508 102.178 91.3119C102.334 91.0729 102.476 90.8431 102.605 90.6225C102.734 90.4019 102.835 90.1997 102.908 90.0159C102.991 89.832 103.032 89.6758 103.032 89.5471H105.721V89.6023C105.519 89.7769 105.247 90.0389 104.907 90.3881C104.567 90.7282 104.2 91.1832 103.804 91.753L98.069 99.8322Z" fill="#22221F"/>
<path d="M104.563 102.231C104.563 101.193 104.756 100.232 105.142 99.3497C105.528 98.4581 106.056 97.686 106.727 97.0334C107.407 96.3809 108.207 95.8707 109.126 95.5031C110.045 95.1354 111.033 94.9516 112.09 94.9516C113.129 94.9516 114.103 95.1262 115.013 95.4755C115.932 95.8156 116.732 96.3027 117.412 96.9369C118.092 97.5711 118.625 98.3432 119.011 99.2531C119.407 100.163 119.604 101.183 119.604 102.314C119.604 103.261 119.439 104.17 119.108 105.044C118.777 105.917 118.29 106.689 117.647 107.36C117.003 108.031 116.213 108.569 115.275 108.973C114.347 109.368 113.276 109.566 112.063 109.566C111.033 109.566 110.064 109.396 109.154 109.056C108.244 108.716 107.449 108.228 106.769 107.594C106.088 106.96 105.551 106.193 105.156 105.292C104.76 104.382 104.563 103.362 104.563 102.231ZM112.38 108.559C113.032 108.559 113.63 108.431 114.172 108.173C114.724 107.916 115.197 107.544 115.592 107.057C115.988 106.569 116.295 105.977 116.516 105.278C116.737 104.58 116.847 103.789 116.847 102.907C116.847 101.914 116.741 100.995 116.53 100.149C116.318 99.2945 116.001 98.5592 115.578 97.9434C115.165 97.3184 114.641 96.8312 114.007 96.482C113.373 96.1327 112.633 95.9581 111.787 95.9581C111.134 95.9581 110.537 96.0867 109.995 96.3441C109.452 96.5923 108.979 96.9553 108.575 97.4333C108.179 97.9112 107.872 98.4995 107.651 99.198C107.43 99.8873 107.32 100.673 107.32 101.556C107.32 102.548 107.426 103.472 107.637 104.327C107.858 105.182 108.179 105.926 108.602 106.56C109.025 107.185 109.549 107.677 110.174 108.035C110.808 108.385 111.544 108.559 112.38 108.559Z" fill="#22221F"/>
<path d="M128.042 115.618C128.786 115.618 129.416 115.536 129.931 115.37C130.445 115.214 130.868 114.993 131.199 114.708C131.539 114.423 131.797 114.079 131.971 113.674C132.155 113.279 132.288 112.843 132.371 112.365C132.463 111.887 132.513 111.376 132.523 110.834C132.541 110.292 132.55 109.731 132.55 109.152V108.697C132.1 108.936 131.558 109.143 130.923 109.318C130.289 109.483 129.572 109.566 128.773 109.566C127.679 109.566 126.686 109.396 125.795 109.056C124.903 108.716 124.14 108.228 123.506 107.594C122.881 106.96 122.398 106.193 122.058 105.292C121.718 104.382 121.548 103.362 121.548 102.231C121.548 101.193 121.714 100.227 122.045 99.3359C122.385 98.4443 122.858 97.6722 123.465 97.0197C124.08 96.3671 124.811 95.857 125.657 95.4893C126.512 95.1125 127.454 94.924 128.483 94.924C128.924 94.924 129.329 94.9608 129.696 95.0343C130.064 95.1079 130.404 95.209 130.717 95.3376C131.038 95.4571 131.337 95.5996 131.613 95.765C131.898 95.9213 132.173 96.0913 132.44 96.2752L132.302 95.2549V95.1998H135.349V95.2549C135.294 95.4479 135.239 95.6869 135.184 95.9718C135.138 96.2568 135.096 96.6106 135.059 97.0334C135.032 97.4562 135.004 97.9618 134.977 98.55C134.958 99.1291 134.949 99.8092 134.949 100.59V109.966C134.949 110.811 134.834 111.634 134.605 112.433C134.384 113.242 134.002 113.959 133.46 114.584C132.927 115.209 132.219 115.71 131.337 116.087C130.455 116.464 129.356 116.652 128.042 116.652C127.582 116.652 127.118 116.606 126.649 116.514C126.181 116.432 125.735 116.326 125.312 116.197C124.889 116.078 124.508 115.945 124.168 115.798C123.828 115.65 123.557 115.522 123.354 115.411L122.927 112.764L123.148 112.709C123.368 113.187 123.667 113.605 124.044 113.964C124.43 114.331 124.848 114.635 125.298 114.874C125.749 115.122 126.213 115.306 126.691 115.425C127.178 115.554 127.628 115.618 128.042 115.618ZM129.393 108.559C130.055 108.559 130.652 108.449 131.185 108.228C131.728 108.008 132.183 107.751 132.55 107.456V100.59C132.55 100.076 132.546 99.6116 132.536 99.198C132.527 98.7752 132.523 98.3938 132.523 98.0537C132.302 97.7136 132.045 97.4149 131.751 97.1575C131.466 96.891 131.158 96.6704 130.827 96.4958C130.505 96.3119 130.174 96.1741 129.834 96.0821C129.494 95.981 129.159 95.9305 128.828 95.9305C128.129 95.9305 127.5 96.0592 126.939 96.3165C126.378 96.5739 125.9 96.9461 125.505 97.4333C125.119 97.9112 124.82 98.4995 124.609 99.198C124.407 99.8873 124.306 100.673 124.306 101.556C124.306 102.548 124.416 103.472 124.637 104.327C124.857 105.182 125.179 105.926 125.602 106.56C126.034 107.185 126.567 107.677 127.201 108.035C127.835 108.385 128.566 108.559 129.393 108.559Z" fill="#22221F"/>
<path d="M138.093 105.25C138.093 104.524 138.24 103.895 138.534 103.362C138.837 102.829 139.237 102.374 139.733 101.997C140.23 101.62 140.795 101.317 141.429 101.087C142.063 100.848 142.72 100.664 143.401 100.535C144.081 100.397 144.752 100.306 145.413 100.26C146.075 100.204 146.682 100.172 147.233 100.163V99.46C147.233 98.8533 147.155 98.3294 146.999 97.8882C146.843 97.4471 146.622 97.084 146.337 96.7991C146.052 96.5049 145.708 96.2889 145.303 96.1511C144.908 96.004 144.471 95.9305 143.993 95.9305C143.663 95.9305 143.336 95.9581 143.015 96.0132C142.693 96.0684 142.357 96.1603 142.008 96.2889C141.668 96.4176 141.305 96.5923 140.919 96.8129C140.542 97.0334 140.133 97.3138 139.692 97.6539L139.554 97.5711L140.492 95.6272C140.795 95.4893 141.094 95.379 141.388 95.2963C141.682 95.2044 141.981 95.1308 142.284 95.0757C142.587 95.0205 142.895 94.9838 143.208 94.9654C143.529 94.9378 143.865 94.924 144.214 94.924C145.179 94.924 146.002 95.0435 146.682 95.2825C147.371 95.5123 147.932 95.834 148.364 96.2476C148.805 96.652 149.127 97.13 149.329 97.6814C149.531 98.2237 149.632 98.8074 149.632 99.4324V103.927C149.632 104.708 149.642 105.393 149.66 105.981C149.687 106.56 149.715 107.061 149.743 107.484C149.779 107.907 149.821 108.261 149.867 108.546C149.922 108.83 149.977 109.069 150.032 109.262V109.318H146.985V109.262C147.031 109.115 147.063 108.95 147.082 108.766C147.109 108.582 147.132 108.362 147.151 108.104C146.958 108.27 146.728 108.44 146.461 108.615C146.204 108.789 145.905 108.95 145.565 109.097C145.234 109.235 144.862 109.345 144.448 109.428C144.044 109.52 143.598 109.566 143.111 109.566C141.512 109.566 140.276 109.194 139.402 108.449C138.529 107.695 138.093 106.629 138.093 105.25ZM147.233 101.238C146.397 101.248 145.593 101.298 144.821 101.39C144.049 101.473 143.364 101.652 142.766 101.928C142.178 102.204 141.705 102.599 141.346 103.113C140.997 103.619 140.822 104.295 140.822 105.14C140.822 106.225 141.094 107.052 141.636 107.622C142.178 108.192 142.927 108.477 143.883 108.477C144.324 108.477 144.724 108.417 145.083 108.297C145.45 108.169 145.772 108.012 146.048 107.829C146.333 107.636 146.572 107.429 146.765 107.208C146.958 106.978 147.105 106.758 147.206 106.546C147.224 106.197 147.233 105.811 147.233 105.388C147.233 104.956 147.233 104.469 147.233 103.927V101.238Z" fill="#22221F"/>
<path d="M170.175 99.8322V103.927C170.175 104.708 170.184 105.393 170.202 105.981C170.221 106.56 170.248 107.061 170.285 107.484C170.322 107.907 170.363 108.261 170.409 108.546C170.464 108.83 170.52 109.069 170.575 109.262V109.318H167.266V109.262C167.321 109.069 167.372 108.83 167.418 108.546C167.473 108.261 167.514 107.907 167.542 107.484C167.578 107.061 167.606 106.56 167.624 105.981C167.652 105.393 167.666 104.708 167.666 103.927V100.108L161.503 91.7255C161.291 91.4405 161.08 91.1786 160.869 90.9396C160.666 90.7006 160.473 90.4938 160.29 90.3192C160.106 90.1354 159.94 89.9837 159.793 89.8642C159.646 89.7447 159.531 89.6574 159.449 89.6023V89.5471H163.626C163.626 89.7585 163.713 90.1078 163.888 90.5949C164.072 91.0729 164.398 91.6381 164.867 92.2907L169.389 98.4811L173.815 92.015C173.971 91.7852 174.127 91.5508 174.283 91.3119C174.44 91.0729 174.582 90.8431 174.711 90.6225C174.839 90.4019 174.941 90.1997 175.014 90.0159C175.097 89.832 175.138 89.6758 175.138 89.5471H177.827V89.6023C177.624 89.7769 177.353 90.0389 177.013 90.3881C176.673 90.7282 176.306 91.1832 175.91 91.753L170.175 99.8322Z" fill="#22221F"/>
<path d="M176.669 102.231C176.669 101.193 176.862 100.232 177.248 99.3497C177.634 98.4581 178.162 97.686 178.833 97.0334C179.513 96.3809 180.313 95.8707 181.232 95.5031C182.151 95.1354 183.139 94.9516 184.196 94.9516C185.235 94.9516 186.209 95.1262 187.119 95.4755C188.038 95.8156 188.838 96.3027 189.518 96.9369C190.198 97.5711 190.731 98.3432 191.117 99.2531C191.513 100.163 191.71 101.183 191.71 102.314C191.71 103.261 191.545 104.17 191.214 105.044C190.883 105.917 190.396 106.689 189.752 107.36C189.109 108.031 188.319 108.569 187.381 108.973C186.453 109.368 185.382 109.566 184.169 109.566C183.139 109.566 182.17 109.396 181.26 109.056C180.35 108.716 179.555 108.228 178.874 107.594C178.194 106.96 177.657 106.193 177.261 105.292C176.866 104.382 176.669 103.362 176.669 102.231ZM184.486 108.559C185.138 108.559 185.736 108.431 186.278 108.173C186.83 107.916 187.303 107.544 187.698 107.057C188.093 106.569 188.401 105.977 188.622 105.278C188.842 104.58 188.953 103.789 188.953 102.907C188.953 101.914 188.847 100.995 188.636 100.149C188.424 99.2945 188.107 98.5592 187.684 97.9434C187.271 97.3184 186.747 96.8312 186.113 96.482C185.478 96.1327 184.739 95.9581 183.893 95.9581C183.24 95.9581 182.643 96.0867 182.101 96.3441C181.558 96.5923 181.085 96.9553 180.681 97.4333C180.285 97.9112 179.977 98.4995 179.757 99.198C179.536 99.8873 179.426 100.673 179.426 101.556C179.426 102.548 179.532 103.472 179.743 104.327C179.964 105.182 180.285 105.926 180.708 106.56C181.131 107.185 181.655 107.677 182.28 108.035C182.914 108.385 183.649 108.559 184.486 108.559Z" fill="#22221F"/>
<path d="M197.128 104.492C197.128 105.705 197.367 106.597 197.845 107.167C198.332 107.737 198.985 108.022 199.803 108.022C200.097 108.022 200.428 107.962 200.796 107.842C201.163 107.714 201.54 107.548 201.926 107.346C202.322 107.135 202.712 106.891 203.098 106.615C203.493 106.34 203.856 106.046 204.187 105.733C204.206 105.466 204.215 105.186 204.215 104.892C204.215 104.589 204.215 104.267 204.215 103.927V100.59C204.215 99.8092 204.201 99.1291 204.174 98.55C204.155 97.9618 204.128 97.4562 204.091 97.0334C204.063 96.6106 204.022 96.2568 203.967 95.9718C203.921 95.6869 203.87 95.4479 203.815 95.2549V95.1998H207V95.2549C206.945 95.4479 206.894 95.6869 206.848 95.9718C206.802 96.2568 206.761 96.6106 206.724 97.0334C206.687 97.4562 206.66 97.9618 206.641 98.55C206.623 99.1291 206.614 99.8092 206.614 100.59V103.927C206.614 104.708 206.623 105.393 206.641 105.981C206.66 106.56 206.687 107.061 206.724 107.484C206.761 107.907 206.802 108.261 206.848 108.546C206.894 108.83 206.945 109.069 207 109.262V109.318H203.815V109.262C203.87 109.033 203.925 108.739 203.981 108.38C204.045 108.022 204.091 107.553 204.118 106.974C203.742 107.296 203.333 107.613 202.891 107.925C202.459 108.238 202.004 108.518 201.526 108.766C201.058 109.014 200.58 109.212 200.093 109.359C199.615 109.515 199.141 109.593 198.673 109.593C197.956 109.593 197.344 109.469 196.839 109.221C196.343 108.973 195.934 108.647 195.612 108.242C195.299 107.838 195.07 107.378 194.923 106.864C194.785 106.349 194.716 105.82 194.716 105.278V100.59C194.716 99.8092 194.707 99.1291 194.688 98.55C194.67 97.9618 194.642 97.4562 194.605 97.0334C194.569 96.6106 194.527 96.2568 194.481 95.9718C194.435 95.6869 194.385 95.4479 194.33 95.2549V95.1998H197.514V95.2549C197.459 95.4479 197.409 95.6869 197.363 95.9718C197.317 96.2568 197.275 96.6106 197.239 97.0334C197.202 97.4562 197.174 97.9618 197.156 98.55C197.138 99.1291 197.128 99.8092 197.128 100.59V104.492Z" fill="#22221F"/>
<path d="M76.0504 107.528C73.179 104.687 69.5544 102.877 65.567 102.293C65.0583 102.219 64.5847 102.574 64.5113 103.081C64.4369 103.589 64.7899 104.063 65.2981 104.138C68.5593 104.615 71.569 106.013 74.0312 108.19C71.0022 110.864 67.1129 112.371 63.0262 112.445C59.1412 112.518 55.3896 111.285 52.3448 108.969C61.6205 107.776 68.8625 99.8404 68.9142 90.2997C68.9157 90.0526 68.8162 89.8105 68.6423 89.6364C68.4551 89.448 68.2036 89.3451 67.9619 89.3627C64.0116 89.3876 60.2391 90.623 57.0513 92.9359C56.6357 93.238 56.5433 93.822 56.8449 94.2376C56.9913 94.4386 57.207 94.571 57.4525 94.6101C57.698 94.6492 57.945 94.5905 58.1465 94.4441C60.7514 92.5536 63.8096 91.4569 67.0179 91.2586C66.7547 95.48 64.9293 99.4255 61.847 102.413C59.1789 104.999 55.8137 106.621 52.2019 107.105C57.9222 99.7133 57.4662 89.0164 50.7932 82.2706C50.6233 82.0986 50.3818 82 50.1306 82C49.8797 82 49.6383 82.0986 49.4684 82.2704C46.6276 85.1421 44.8176 88.7668 44.2342 92.7531C44.1599 93.2611 44.5127 93.7353 45.0235 93.8103C45.5318 93.8819 46.0043 93.5284 46.0781 93.0229C46.5554 89.7623 47.9535 86.7526 50.1301 84.2899C52.9073 87.4408 54.3884 91.5002 54.3098 95.774C54.2417 99.4728 53.006 102.987 50.7973 105.877C49.6149 96.6784 41.776 89.464 32.3553 89.367C32.1011 89.3653 31.8642 89.4601 31.6859 89.6365C31.5105 89.8103 31.4097 90.0517 31.4097 90.2987V92.0282C31.4097 92.0587 31.4112 92.0897 31.4145 92.1226C31.7371 95.2921 32.8743 98.3486 34.7032 100.962C34.9968 101.382 35.5784 101.485 36.001 101.191C36.2049 101.048 36.3411 100.835 36.3842 100.589C36.4275 100.344 36.3729 100.097 36.23 99.8931C34.5924 97.5533 33.5702 94.8176 33.2733 91.9803V91.2666C37.4462 91.5444 41.3479 93.373 44.3008 96.4455C46.8521 99.1 48.4537 102.439 48.9331 106.017C41.5948 100.365 30.9599 100.922 24.2791 107.466C24.1003 107.642 24.0012 107.876 24 108.126C23.9986 108.374 24.0982 108.616 24.2731 108.79L25.4923 110.009C25.515 110.032 25.5387 110.054 25.5659 110.076C28.8983 112.792 33.109 114.288 37.4228 114.288C37.4233 114.288 37.4241 114.288 37.4243 114.288H37.459C40.8304 114.285 44.1369 113.38 47.0211 111.668C47.2351 111.542 47.387 111.339 47.4485 111.098C47.5102 110.856 47.4741 110.605 47.3474 110.392C47.2207 110.178 47.018 110.026 46.7768 109.964C46.5352 109.902 46.284 109.939 46.07 110.066C43.4752 111.605 40.4989 112.421 37.4621 112.424H37.4144C33.5471 112.422 29.7714 111.086 26.78 108.661L26.275 108.156C29.4252 105.397 33.4685 103.921 37.7221 103.988C42.1273 104.059 46.2607 105.786 49.3609 108.851C49.3619 108.852 49.363 108.853 49.3641 108.854C49.3641 108.854 49.3641 108.854 49.3642 108.854C49.3643 108.854 49.3644 108.854 49.3644 108.854C49.3662 108.856 49.368 108.858 49.3698 108.86C52.9273 112.376 57.6618 114.312 62.7032 114.312C62.7039 114.312 62.7051 114.312 62.7057 114.312C67.7521 114.312 72.4916 112.373 76.051 108.853C76.2262 108.679 76.327 108.437 76.327 108.19C76.327 107.943 76.2262 107.702 76.0504 107.528Z" fill="#22221F"/>
<path d="M267.759 103.022L269.274 99.8093C269.469 99.3969 270.031 99.3969 270.225 99.8093L271.741 103.022L275.129 103.54C275.564 103.607 275.737 104.166 275.422 104.487L272.971 106.986L273.549 110.517C273.624 110.97 273.169 111.316 272.78 111.102L269.75 109.434L266.72 111.102C266.331 111.316 265.876 110.97 265.95 110.517L266.529 106.986L264.077 104.487C263.763 104.166 263.936 103.607 264.371 103.54L267.759 103.022Z" stroke="#22221F" stroke-width="2.1875" stroke-linecap="round" stroke-linejoin="round"/>
<path d="M285.259 103.022L286.774 99.8093C286.969 99.3969 287.531 99.3969 287.725 99.8093L289.241 103.022L292.629 103.54C293.064 103.607 293.237 104.166 292.922 104.487L290.471 106.986L291.049 110.517C291.124 110.97 290.669 111.316 290.28 111.102L287.25 109.434L284.22 111.102C283.831 111.316 283.376 110.97 283.45 110.517L284.029 106.986L281.577 104.487C281.263 104.166 281.436 103.607 281.871 103.54L285.259 103.022Z" stroke="#22221F" stroke-width="2.1875" stroke-linecap="round" stroke-linejoin="round"/>
<path d="M276.509 89.8971L278.024 86.6843C278.219 86.2719 278.781 86.2719 278.975 86.6843L280.491 89.8971L283.879 90.4155C284.314 90.482 284.487 91.0413 284.172 91.3621L281.721 93.8612L282.299 97.3917C282.374 97.845 281.919 98.1908 281.53 97.9767L278.5 96.3088L275.47 97.9767C275.081 98.1908 274.626 97.845 274.7 97.3917L275.279 93.8612L272.827 91.3621C272.513 91.0413 272.686 90.482 273.121 90.4155L276.509 89.8971Z" stroke="#22221F" stroke-width="2.1875" stroke-linecap="round" stroke-linejoin="round"/>
<path d="M324.125 108.25C324.125 108.25 325.438 102.794 328.5 99.5" stroke="#22221F" stroke-width="2.1875" stroke-linecap="round" stroke-linejoin="round"/>
<path d="M334.604 92.5603L335.15 98.2321C335.505 101.912 332.746 105.188 329.066 105.542C325.456 105.89 322.186 103.251 321.838 99.6403C321.49 96.03 324.135 92.8215 327.746 92.4738L333.793 91.8915C334.202 91.8522 334.565 92.1516 334.604 92.5603Z" stroke="#22221F" stroke-width="2.1875" stroke-linecap="round" stroke-linejoin="round"/>
<path d="M328.5 114.083C336.554 114.083 343.083 107.554 343.083 99.5C343.083 91.4458 336.554 84.9166 328.5 84.9166C320.446 84.9166 313.917 91.4458 313.917 99.5C313.917 107.554 320.446 114.083 328.5 114.083Z" stroke="#22221F" stroke-width="2.1875" stroke-linecap="round" stroke-linejoin="round"/>
<path d="M363.917 111.167V109.708C363.917 104.07 368.487 99.5 374.125 99.5V99.5" stroke="#22221F" stroke-width="2.1875" stroke-linecap="round" stroke-linejoin="round"/>
<path d="M384.047 99.9572C384.983 98.9295 386.6 98.9295 387.536 99.9572V99.9572C388.009 100.477 388.689 100.758 389.391 100.725V100.725C390.779 100.661 391.923 101.804 391.858 103.192V103.192C391.825 103.894 392.107 104.574 392.626 105.047V105.047C393.654 105.983 393.654 107.6 392.626 108.536V108.536C392.107 109.009 391.825 109.689 391.858 110.391V110.391C391.923 111.779 390.779 112.923 389.391 112.858V112.858C388.689 112.825 388.009 113.107 387.536 113.626V113.626C386.6 114.654 384.983 114.654 384.047 113.626V113.626C383.574 113.107 382.894 112.825 382.192 112.858V112.858C380.804 112.923 379.66 111.779 379.725 110.391V110.391C379.758 109.689 379.476 109.009 378.957 108.536V108.536C377.929 107.6 377.929 105.983 378.957 105.047V105.047C379.476 104.574 379.758 103.894 379.725 103.192V103.192C379.66 101.804 380.804 100.661 382.192 100.725V100.725C382.894 100.758 383.574 100.477 384.047 99.9572V99.9572Z" stroke="#22221F" stroke-width="2.1875"/>
<path d="M383.405 106.792L384.996 108.383L388.178 105.201" stroke="#22221F" stroke-width="2.1875" stroke-linecap="round" stroke-linejoin="round"/>
<path d="M374.125 99.5C377.346 99.5 379.958 96.8884 379.958 93.6667C379.958 90.445 377.346 87.8334 374.125 87.8334C370.903 87.8334 368.292 90.445 368.292 93.6667C368.292 96.8884 370.903 99.5 374.125 99.5Z" stroke="#22221F" stroke-width="2.1875" stroke-linecap="round" stroke-linejoin="round"/>
</svg>
